<?xml version="1.0" encoding="UTF-8" standalone="no"?>
<svg
   id="Layer_1"
   data-name="Layer 1"
   width="88.853798"
   height="113.23412"
   viewBox="0 0 88.853798 113.23412"
   version="1.1"
   sodipodi:docname="Convention_on_Biological_Diversity_logo.svg"
   inkscape:version="1.2.2 (b0a84865, 2022-12-01)"
   xmlns:inkscape="http://www.inkscape.org/namespaces/inkscape"
   xmlns:sodipodi="http://sodipodi.sourceforge.net/DTD/sodipodi-0.dtd"
   xmlns="http://www.w3.org/2000/svg"
   xmlns:svg="http://www.w3.org/2000/svg"
   xmlns:rdf="http://www.w3.org/1999/02/22-rdf-syntax-ns#"
   xmlns:cc="http://creativecommons.org/ns#"
   xmlns:dc="http://purl.org/dc/elements/1.1/">
  <sodipodi:namedview
     id="namedview203"
     pagecolor="#ffffff"
     bordercolor="#000000"
     borderopacity="0.25"
     inkscape:showpageshadow="2"
     inkscape:pageopacity="0.0"
     inkscape:pagecheckerboard="0"
     inkscape:deskcolor="#d1d1d1"
     showgrid="false"
     inkscape:zoom="2.0521739"
     inkscape:cx="146.43008"
     inkscape:cy="56.525424"
     inkscape:window-width="1309"
     inkscape:window-height="456"
     inkscape:window-x="0"
     inkscape:window-y="38"
     inkscape:window-maximized="0"
     inkscape:current-layer="Layer_1" />
  <defs
     id="defs134">
    <style
       id="style132">.cls-1,.cls-2{fill:#00a65e;}.cls-1{fill-rule:evenodd;}</style>
  </defs>
  <title
     id="title136">CBD</title>
  <path
     class="cls-1"
     d="m 62.452,43.12662 9.48134,-0.5008 C 88.52,41.71029 88.85118,29.09886 88.8538,28.98671 V 0.13564 L 87.46875,0 C 87.45575,0.073 84.8787,12.901 73.00018,13.49826 L 62.126,14.0095 C 52.94715,14.46335 48.31732,20.10002 46.02458,25.53063 A 31.10121,31.10121 0 0 0 43.71616,36.23534 V 56.48407 A 23.43224,23.43224 0 0 0 42.8267,53.96179 C 40.53394,48.52854 35.90149,42.89707 26.72527,42.43807 L 15.851,41.93207 C 8.71454,41.56944 4.13948,36.66833 1.96415,30.44478 A 18.638,18.638 0 0 1 1.37988,28.43112 L 0,28.56676 v 28.85631 a 10.18788,10.18788 0 0 0 0.30782,2.04757 C 2.17016,67.26439 9.231,70.6344 16.91526,71.06217 l 9.48133,0.5008 c 13.97043,0.77729 17.10567,16.26052 17.31956,18.82715 v 22.844 h 1.40591 c 0,-1.56763 2.817,-18.26113 17.33,-19.06711 L 71.9334,93.66359 C 88.52,92.74547 88.85118,80.13926 88.8538,80.02971 V 51.17082 l -1.38505,-0.133 c -0.013,0.06522 -2.59005,12.89574 -14.46857,13.49827 L 62.126,65.03946 c -9.17885,0.46429 -13.80868,6.101 -16.10142,11.529 -0.34435,0.80858 -0.63649,1.62239 -0.88683,2.41012 l 0.013,-16.87609 C 44.95776,60.86087 48.94329,43.12662 62.452,43.12662 M 42.43282,78.72553 C 39.29233,73.54272 35.9354,69.54407 26.068,69.02507 L 17.07438,68.566 C 10.40216,68.21648 4.15779,65.556 2.53538,59.082 A 8.231,8.231 0 0 1 2.27978,57.50917 V 36.47791 c 2.52486,5.35236 6.62255,7.3608 13.64693,8.3285 l 10.3134,0.45385 c 16.044,0.77208 16.19272,18.65239 16.19272,18.80367 z m 3.74036,7.96594 c 0,-0.14869 0.14607,-18.03421 16.19273,-18.79846 l 10.31085,-0.45646 c 7.0243,-0.96771 11.12207,-2.97092 13.64956,-8.31807 v 21.026 a 8.52815,8.52815 0 0 1 -0.253,1.56763 c -1.62768,6.47134 -7.8695,9.13708 -14.54165,9.4866 l -8.99362,0.45907 c -9.8674,0.52168 -13.2244,4.52029 -16.3649,9.69788 z m 0,-36.44924 v -14.659 c 0,-0.15651 0.14607,-18.03421 16.19273,-18.80106 l 10.31085,-0.45646 c 7.0243,-0.97032 11.12207,-2.97614 13.64956,-8.32588 v 21.03124 a 8.60936,8.60936 0 0 1 -0.253,1.57284 c -1.62768,6.47134 -7.8695,9.13447 -14.54165,9.48139 l -8.99362,0.45646 c -9.8674,0.52168 -13.2244,4.52289 -16.3649,9.70049"
     id="path138" />
  <metadata
     id="metadata1399">
    <rdf:RDF>
      <cc:Work
         rdf:about="">
        <dc:title>CBD</dc:title>
      </cc:Work>
    </rdf:RDF>
  </metadata>
</svg>
