<?xml version="1.0" encoding="UTF-8" standalone="no"?>
<!-- Created with Sodipodi ("http://www.sodipodi.com/") -->

<svg
   version="1.0"
   x="0"
   y="0"
   width="420"
   height="420"
   id="svg24159"
   sodipodi:docname="WMD-biological.svg"
   inkscape:version="1.2.2 (b0a84865, 2022-12-01)"
   xmlns:inkscape="http://www.inkscape.org/namespaces/inkscape"
   xmlns:sodipodi="http://sodipodi.sourceforge.net/DTD/sodipodi-0.dtd"
   xmlns="http://www.w3.org/2000/svg"
   xmlns:svg="http://www.w3.org/2000/svg">
  <sodipodi:namedview
     id="namedview136"
     pagecolor="#ffffff"
     bordercolor="#000000"
     borderopacity="0.25"
     inkscape:showpageshadow="2"
     inkscape:pageopacity="0.0"
     inkscape:pagecheckerboard="0"
     inkscape:deskcolor="#d1d1d1"
     showgrid="false"
     inkscape:zoom="0.49166667"
     inkscape:cx="198.30508"
     inkscape:cy="209.49153"
     inkscape:window-width="1309"
     inkscape:window-height="456"
     inkscape:window-x="0"
     inkscape:window-y="38"
     inkscape:window-maximized="0"
     inkscape:current-layer="svg24159" />
  <defs
     id="defs666" />
  <circle
     cx="210"
     cy="210"
     r="200"
     style="font-size:12px;fill:#ff0000;stroke:#000000;stroke-width:20"
     id="circle663" />
  <path
     d="m 206.592,22.36644 c -5e-4,8.2e-4 5e-4,0.02789 0,0.02868 0.009,-0.0026 0.0196,-0.02518 0.0286,-0.02868 -0.004,0 -0.025,-1.6e-4 -0.0286,0 z m -2.1473,0.08596 c -0.0201,0.0025 -0.0372,0.02569 -0.0573,0.02858 0.0768,-0.0047 0.1523,-0.02412 0.2292,-0.02858 -0.019,2e-4 -0.0386,-8.9e-4 -0.0574,0 -0.0417,0.0019 -0.0741,-0.0051 -0.1145,0 z m 10.4215,0.05722 c 0.1527,0.01121 0.3057,0.01653 0.4581,0.02864 -0.1499,-0.0091 -0.3078,-0.02022 -0.4581,-0.02864 z m 0.4581,0.02864 c 38.5551,3.06439 68.9136,35.38661 68.9136,74.72564 0,40.0545 -31.5086,72.7232 -71.0609,74.7542 v 15.346 c 10.7981,1.7072 19.0679,11.0847 19.0679,22.3604 0,2.7598 -0.4968,5.3989 -1.4029,7.8448 l 14.029,8.1024 c 21.6804,-32.7495 65.4215,-43.4357 99.8917,-23.5343 34.3882,19.8541 47.0856,62.9264 29.747,98.0306 23.7959,-46.3153 7.2486,-103.721 -38.3361,-130.0394 -11.4054,-6.5849 -23.5575,-10.5965 -35.8454,-12.2539 4.7036,-11.4676 7.3007,-24.0247 7.3007,-37.191 0,-52.25363 -40.8295,-95.03032 -92.3046,-98.14544 z m -12.5688,0.05726 c -51.2178,3.3829 -91.7893,46.01925 -91.7893,98.08818 0,12.7915 2.4448,25.0164 6.9,36.2175 -11.9223,1.7455 -23.7409,5.7173 -34.8147,12.1107 -45.2795,26.1422 -61.86625,82.944 -38.7655,129.0948 -16.67892,-34.9361 -3.8882,-77.4308 30.205,-97.1145 34.6881,-20.0272 78.7289,-9.0736 100.2639,24.1641 l 13.5423,-7.8161 c -0.8511,-2.3792 -1.2884,-4.9451 -1.2884,-7.6157 0,-10.7969 7.5698,-19.8274 17.6936,-22.0741 v -15.6608 c -39.2021,-2.4011 -70.3164,-34.9228 -70.3164,-74.7257 0,-39.15903 30.066,-71.35279 68.3695,-74.66838 z m 4.3805,94.13718 c -19.7865,0.4552 -38.0273,7.1912 -52.995,18.1518 1.1957,1.7695 2.4805,3.482 3.8364,5.1248 1.3561,1.6428 2.7897,3.2191 4.2947,4.724 1.5049,1.505 3.0811,2.9387 4.724,4.2946 1.2079,0.997 2.502,1.8945 3.7792,2.8058 11.0485,-7.2542 24.2794,-11.5094 38.5367,-11.5094 14.2571,0 27.4594,4.2552 38.5079,11.5094 1.2772,-0.9113 2.5713,-1.8088 3.7792,-2.8058 1.6429,-1.3559 3.2191,-2.7896 4.724,-4.2946 1.5051,-1.5049 2.9387,-3.0812 4.2947,-4.724 1.3559,-1.6428 2.6406,-3.3553 3.8364,-5.1248 -15.5086,-11.3568 -34.5287,-18.1518 -55.1422,-18.1518 -0.4832,0 -0.9788,-0.007 -1.4603,0 -0.235,0.004 -0.4811,-0.005 -0.7157,0 z M 116.95,199.303 c -2.0809,19.1092 1.5463,38.9797 11.8531,56.8315 10.3067,17.8518 25.6997,30.9559 43.2892,38.7084 0.9346,-1.9203 1.7747,-3.9022 2.5195,-5.8979 0.7448,-1.9957 1.396,-4.0138 1.9468,-6.0696 0.5509,-2.0559 1.0214,-4.1408 1.3743,-6.2415 0.2595,-1.5445 0.3935,-3.1051 0.5441,-4.6668 -11.8066,-5.9412 -22.1032,-15.2812 -29.2318,-27.6284 -7.1286,-12.3471 -10.063,-25.9138 -9.3049,-39.1092 -1.4277,-0.6505 -2.8559,-1.3134 -4.3232,-1.861 -1.9957,-0.7447 -4.0138,-1.3959 -6.0697,-1.9468 -2.0558,-0.5509 -4.1407,-0.9928 -6.2414,-1.3457 -2.1007,-0.3529 -4.2257,-0.6222 -6.356,-0.773 z m 185.3537,1.1166 c -2.1304,0.1509 -4.2552,0.4201 -6.3559,0.773 -2.1008,0.353 -4.1857,0.7948 -6.2416,1.3457 -2.0557,0.5509 -4.1025,1.2021 -6.0982,1.9469 -1.4674,0.5475 -2.8669,1.2391 -4.2945,1.8895 0.7579,13.1953 -2.1764,26.7622 -9.305,39.1093 -7.1286,12.347 -17.4252,21.6585 -29.2316,27.5997 0.1504,1.5616 0.2844,3.1223 0.5439,4.6668 0.3529,2.1007 0.7947,4.1856 1.3456,6.2415 0.5509,2.0558 1.2022,4.1026 1.9469,6.0982 0.7447,1.9958 1.585,3.9489 2.5195,5.8692 17.5895,-7.7524 32.9825,-20.8279 43.2892,-38.6797 10.3069,-17.8518 13.9626,-37.7509 11.8817,-56.8601 z m -109.712,24.1641 -13.6281,7.9021 c 17.5217,35.1504 4.9236,78.3582 -29.5465,98.2596 -34.3005,19.8033 -77.8173,9.3821 -99.60551,-22.9902 28.27311,43.5652 86.09001,57.8463 131.58561,31.5793 11.0209,-6.3629 20.3177,-14.5657 27.7716,-23.9636 7.6002,9.8791 17.2192,18.4589 28.6877,25.0802 45.5468,26.2964 103.4332,11.9573 131.6716,-31.7225 -21.7479,32.5124 -65.328,43.0304 -99.6913,23.1907 -34.6881,-20.0273 -47.2203,-63.6494 -29.2031,-98.9182 l -14.1721,-8.1883 c -4.1417,4.6114 -10.1532,7.5298 -16.8347,7.5298 -6.7913,0 -12.8881,-3.0149 -17.0352,-7.7589 z"
     style="font-size:12px;fill:#ffff00"
     id="path7214" />
</svg>
