<?xml version="1.0" encoding="UTF-8" standalone="no"?>
<!-- Generator: Adobe Illustrator 22.1.0, SVG Export Plug-In . SVG Version: 6.00 Build 0)  -->

<svg
   version="1.1"
   id="Layer_1"
   x="0px"
   y="0px"
   viewBox="0 0 336.10144 290.78156"
   xml:space="preserve"
   sodipodi:docname="International_Atomic_Energy_Agency_Logo.svg"
   width="336.10144"
   height="290.78156"
   inkscape:version="1.2.2 (b0a84865, 2022-12-01)"
   xmlns:inkscape="http://www.inkscape.org/namespaces/inkscape"
   xmlns:sodipodi="http://sodipodi.sourceforge.net/DTD/sodipodi-0.dtd"
   xmlns="http://www.w3.org/2000/svg"
   xmlns:svg="http://www.w3.org/2000/svg"
   xmlns:rdf="http://www.w3.org/1999/02/22-rdf-syntax-ns#"
   xmlns:cc="http://creativecommons.org/ns#"
   xmlns:dc="http://purl.org/dc/elements/1.1/"><defs
   id="defs204" /><sodipodi:namedview
   id="namedview202"
   pagecolor="#ffffff"
   bordercolor="#000000"
   borderopacity="0.25"
   inkscape:showpageshadow="2"
   inkscape:pageopacity="0.0"
   inkscape:pagecheckerboard="0"
   inkscape:deskcolor="#d1d1d1"
   showgrid="false"
   inkscape:zoom="0.5686747"
   inkscape:cx="157.38347"
   inkscape:cy="237.39407"
   inkscape:window-width="1309"
   inkscape:window-height="456"
   inkscape:window-x="0"
   inkscape:window-y="38"
   inkscape:window-maximized="0"
   inkscape:current-layer="Layer_1" />
<style
   type="text/css"
   id="style132">
	.st0{fill:#009edb;stroke:#009edb;stroke-miterlimit:10;}
</style>
<title
   id="title134">IAEA</title>
<g
   id="Logo"
   transform="translate(0.50126535,0.5)">
	<path
   class="st0"
   d="M 75.9,16.5"
   id="path136" />
	<path
   class="st0"
   d="M 307.3,164.8"
   id="path138" />
	<path
   class="st0"
   d="m 52.8,31.2 c -10.6,12.3 -11,23 -11,23 0,0 7.5,-2.7 16.4,-12.5 C 64.6,33.6 70.5,25.2 76,16.4 75.9,16.5 65.8,18.3 52.8,31.2 Z"
   id="path140" />
	<path
   class="st0"
   d="m 54.6,60.9 -0.1,0.2 c -6,7.1 -13.3,13.6 -19,18.8 -2.6,2.4 -5,5 -7.3,7.7 0,0 -4.1,-21.5 0.6,-36 2.7,-10.1 8.7,-19 17.1,-25.2 -2.3,4.5 -4,9.2 -5,14.1 -1.3,6 -2.5,13 -3.6,18.5 -0.6,3.2 -1.4,6.3 -2.3,9.3 0,0 2.1,-5.3 8.5,-10.5 4.6,-3.8 10.4,-7.1 15.1,-10.4 3.2,-2.4 6.2,-5 8.9,-8 0,0.1 -1.6,8.2 -12.9,21.5 z"
   id="path142" />
	<path
   class="st0"
   d="m 42.8,91.5 c -4.8,8.8 -10.2,17.3 -16.4,25.2 -2.3,3.9 -3.8,8.1 -4.5,12.5 0,0 -0.7,0.7 -1.1,-0.6 -0.9,-2.9 -2.5,-9 -4.5,-16 -2.5,-8.6 -5.4,-19.2 -5.1,-28 0.6,-12.8 5.2,-25.2 13.1,-35.3 0,0 -0.8,3.9 -2.9,14.3 -0.7,10.8 2,17.4 2.4,23.8 0.3,5.3 0.1,10.7 -0.7,16 2.1,-5.2 5.1,-10 8.7,-14.3 4.2,-4.6 8.7,-9 13.3,-13.1 3.9,-3.5 6.1,-5.8 6.1,-5.8 0,0 -3,11.9 -8.4,21.3 z"
   id="path144" />
	<path
   class="st0"
   d="M 12.6,143.8 C 1.1,129.1 0.9,115.5 0,109.5 0.2,103.6 1,97.8 2.5,92.1 c 1.4,4.9 3.1,9.6 5.1,14.3 3,7 7.2,13.6 9.9,22 2.3,6.3 4.2,12.8 5.5,19.4 -0.2,-6.9 1,-13.8 3.5,-20.3 4.5,-11.7 13.7,-24.4 13.7,-24.4 0.9,4.7 0.8,9.5 -0.3,14.1 -1,7.5 -2.8,14.9 -5.4,22 -0.9,2.6 -4.3,9.5 -7,16.7 -0.4,2.6 -0.2,5.2 0.7,7.7 l -1.5,0.1 c -0.1,0 -3.3,-5.8 -14.1,-19.9 z"
   id="path146" />
	<path
   class="st0"
   d="m 11.4,170.2 c 1.5,3.6 3.7,6.8 6.4,9.6 6.1,6.4 14.1,11 19.2,15.4 5.7,4.8 9.1,7.9 9.1,7.9 l 1.4,-0.1 c 0,0 -2.5,-4.8 -2.7,-12.8 0.9,-11 2,-26.2 0.7,-37.8 -1.4,-12.5 -5.6,-19.3 -5.6,-19.3 0,0 -4.9,17.4 -4.9,31.3 -0.2,13.8 2.6,18.6 4,23.1 0.4,1.1 0.6,2.3 0.7,3.4 -3.3,-6.7 -7.2,-13.1 -11.7,-19.1 -5.2,-7 -12.4,-12.7 -17.2,-20 -3,-4.3 -5.5,-9 -7.6,-13.8 0,0 -1.2,15.1 8.2,32.2 z"
   id="path148" />
	<path
   class="st0"
   d="m 67.7,233.9 c -7,-0.8 -16,-2.8 -21.6,-5.4 -9.1,-4.3 -12.5,-8.2 -14,-9.5 -13.9,-14 -18.9,-37 -18.9,-37 0,0 1,0.2 3.6,3.2 2,3.4 5.3,7.4 10.1,11.6 6.1,5.4 17,12.5 23.9,18 4.4,3.4 8.4,7.1 12.1,11.2 1.1,1.1 2.3,2.2 3.5,3.1 -5.9,-6.7 -10.3,-14.6 -12.8,-23.1 -2.1,-7.5 -2.5,-17.2 -2.7,-23.8 -0.3,-7.3 -0.8,-11.1 -0.8,-11.1 0,0 10.5,14.4 16.3,29.1 3.2,8 3.8,16.9 5.3,23.4 1.7,8.9 4.2,12.2 4.2,12.2 l -2.2,0.1 c 0,0 -1.4,-0.9 -6,-2 z"
   id="path150" />
	<path
   class="st0"
   d="m 104,254.1 c -5.7,1.3 -11.5,2.3 -17.4,3 -10.8,1 -14.6,-1.2 -18.4,-2.4 -21.8,-6.5 -31.9,-26.1 -31.9,-26.1 0,0 5.2,3.5 19.4,7.8 9.2,3 18.7,5.2 28.2,6.7 4.8,1.2 9.6,2.6 14.3,4.3 0,0 -10.6,-4.2 -16.2,-13.7 C 78.1,227 75.5,219 73.8,212.4 72.1,206.1 71.1,201 71.1,201 c 5.7,5 11,10.4 16,16.1 11.8,12.3 13.9,20 19.7,28.3 3.6,4.6 7.6,5.3 7.6,5.3 l -0.6,1 c 0,0.1 -4.2,1.2 -9.8,2.4 z"
   id="path152" />
	<path
   class="st0"
   d="m 148.1,262.5 c -13.3,5.6 -28,12 -48,12.4 -23.7,0.3 -38.2,-12.6 -38.2,-12.6 0,0 3.5,1.8 18.9,2.1 14.2,0 30.9,-9.6 57.2,-10.7 11.2,-0.4 31.3,5.2 31.3,5.2 0,0 17.1,-4.7 34,-4 12.9,1 34.4,7.6 47,10.3 14,2 23.8,-2 23.8,-2 0,0 -13.9,12.2 -37.5,12.6 -16.4,-0.2 -30.7,-4.7 -47.6,-12 -1.9,-1.1 -11.6,-2.6 -11.6,-2.6 8.2,3.7 16,8.3 23.4,13.6 4.1,3 7.8,6.6 11,10.6 -1,0.7 -2,1.3 -3,1.8 -1.1,0.6 -2.2,1.1 -3.4,1.5 -3.7,-5.8 -8.3,-10.8 -13.8,-14.9 -6.8,-4.7 -14.3,-8.5 -22.1,-11.3 0,0 -13.5,4.2 -24.1,11.7 -5.9,4.1 -10.8,9.4 -14.5,15.5 -1.1,-0.3 -2.1,-0.8 -3.1,-1.3 -1.2,-0.6 -2.3,-1.3 -3.4,-2.1 0,0 5.3,-7.5 16.8,-14.7 9,-6 20.9,-10.8 20.9,-10.8 0,0 -4.7,-1.1 -14,1.7 z"
   id="path154" />
	<path
   class="st0"
   d="m 228.7,246.2 c 4.7,-5.9 7.4,-14.4 17.1,-25 9.2,-10.5 18.7,-19.2 18.7,-19.2 0,0 -0.7,4.3 -2.3,10.2 -1.8,6.7 -4.7,15.4 -9.1,22.5 -6.4,11 -15.6,13.6 -15.6,13.6 0,0 4.9,-1.6 13.1,-3.6 8.5,-2 20.4,-4.5 29.5,-7.2 6.6,-2 13,-4.7 19.1,-8 0,0 -9.3,19.8 -35.2,27.5 -11.3,2.7 -22.6,0.7 -32.1,-1.8 -6.2,-1.3 -10.6,-2 -10.6,-2 l -0.3,-1.4 c 0,0 3.1,0.2 7.7,-5.6 z"
   id="path156" />
	<path
   class="st0"
   d="m 271.8,199.5 c -6.2,14.1 -6.8,22.5 -9.1,29.8 -0.7,2.7 -1.9,5.2 -3.4,7.5 l 1.3,0.4 c 2.4,-1.1 4.9,-1.8 7.5,-2.3 8.9,-1.8 20.4,-2.5 32.8,-12.6 16.7,-14.7 21.4,-39.3 21.4,-39.3 -1,0.8 -2,1.7 -2.7,2.7 -3,4.5 -6.6,8.5 -10.7,12 -7.1,6.1 -19.1,14.2 -27.6,21.1 -3.2,2.6 -6.4,6.3 -8.5,8.3 -1.1,1.2 -2.4,2.3 -3.8,3.2 0,0 10.4,-11.4 13,-24 2.2,-8.7 2,-15 2.4,-21.6 0.5,-7.1 0.9,-12.4 0.9,-12.4 -5.1,8.6 -9.6,17.8 -13.5,27.2 z"
   id="path158" />
	<path
   class="st0"
   d="m 287.7,203.9 c 2,-4 3.1,-8.4 3,-12.9 -0.1,-8.9 -2.6,-20.7 -1.5,-31.3 1.7,-17.7 6.2,-25.9 6.2,-25.9 0,0 4.9,16.1 4.9,31.2 0,17.8 -4.9,27.1 -4.9,27.1 2.9,-5.5 6.1,-10.8 9.6,-15.9 5,-7.2 12,-13.5 17.2,-20.5 3.8,-5.2 7.1,-10.8 9.9,-16.7 0,0 1.6,17.9 -10.5,36.3 -4.8,7.3 -14.8,14.2 -22.2,20 -3.6,2.8 -7.1,5.9 -10.3,9.1 z"
   id="path160" />
	<path
   class="st0"
   d="m 307.4,154.8 c -2.6,-8.1 -8.6,-18.7 -10.7,-29 -3.2,-15.5 -1.3,-21.7 -1.3,-21.7 0,0 9.2,12.7 13.9,25.5 3.5,9.5 3,20 3,20 1.1,-5.7 2.5,-11.3 4.4,-16.7 3.8,-11.3 10.3,-25.1 13.5,-33.4 0.9,-2.3 1.4,-4.8 1.5,-7.2 0,0 0.5,2 1.4,5.5 1.3,4.3 1.9,8.7 2,13.2 -0.2,5.9 -1.3,11.7 -3.2,17.2 -2.8,8.9 -11.1,19.3 -17,27.5 -3.9,5.4 -6.2,9.2 -6.2,9.2 h -1.1 c 0.8,-3.3 0.8,-6.8 -0.2,-10.1 z"
   id="path162" />
	<path
   class="st0"
   d="m 290.7,88.7 c 8.1,15.5 14.3,21.5 19.3,29.9 1.9,3.3 3.3,6.8 4,10.5 l 0.8,-0.8 c 0,0 1.3,-4.6 3.1,-11.1 2.7,-9.6 6.4,-23.6 5.8,-35.6 -0.4,-5.7 -1.8,-11.3 -4.2,-16.5 -3.8,-9.9 -8.6,-14.8 -8.6,-14.8 1.2,5.6 2,11.3 2.5,17 -0.5,8.3 -1.9,15.2 -2.3,22.5 -0.1,4.6 0.2,9.3 1,13.9 -2.1,-5.1 -5,-9.9 -8.7,-14 -3.8,-4.3 -8.5,-8.3 -12.4,-11.7 -3.9,-3.4 -6.9,-6.4 -6.9,-6.4 1.6,5.9 3.8,11.7 6.6,17.1 z"
   id="path164" />
	<path
   class="st0"
   d="m 281.8,62.6 c 5.7,6.8 12,13 18.8,18.6 2.4,2.2 4.5,4.6 6.3,7.2 h 0.5 c 0,0 0.2,-3.4 0.6,-8.2 0.7,-7.5 1.9,-16.5 -1.2,-27.9 -1.9,-6.6 -5.2,-12.7 -9.6,-18 -2.1,-2.5 -4.6,-4.8 -7.3,-6.6 0,0 0.5,1 1.7,4.3 1.5,4 2.8,8.1 3.8,12.4 1.1,5 1.9,10.2 2.8,14.8 1.1,5.8 2.3,10.3 2.3,10.3 0,0 -1.4,-4 -7.2,-9.2 -4.7,-4.2 -12.1,-8.5 -17.3,-12.4 -2.9,-2.1 -5.5,-4.6 -7.9,-7.3 -0.1,0 0.8,7.4 13.7,22 z"
   id="path166" />
	<path
   class="st0"
   d="m 282,47.4 c -9.4,-10 -13.1,-17 -17.6,-23.5 -2.7,-3.9 -4.8,-6.5 -4.8,-6.5 0,0 13.8,4.4 21.5,12.9 13.9,15.5 13,25.1 13,25.1 0,0 -7.8,-3.3 -12.1,-8 z"
   id="path168" />
	<path
   class="st0"
   d="m 177.8,5.3 c -18.7,12.1 -38.3,53.4 -48.7,102.6 -13.5,63.9 -7.2,117.5 14.4,122 21.6,4.5 49.1,-42 62.7,-106 10.4,-49.2 9.2,-94.8 -3,-113.4 -3.2,-4.8 -7,-7.7 -11.4,-8.6 v 0 c -4.5,-0.9 -9.1,0.2 -14,3.4 z m -33.5,221 c -18.9,-3.9 -24.2,-57.8 -11.5,-117.6 5.1,-24 12.4,-46.4 21.1,-64.6 8.3,-17.5 17.6,-30.1 26,-35.6 4,-2.6 7.7,-3.5 11.1,-2.8 v 0 c 3.4,0.7 6.4,3.1 9,7 5.5,8.4 8.8,23.6 9.4,43 0.6,20.2 -1.8,43.6 -6.9,67.6 -12.7,59.7 -39.3,106.9 -58.2,103 z"
   id="path170" />
	<path
   class="st0"
   d="m 181.1,1.6 c 4.2,-1.3 8.7,-1.3 12.8,0 4.2,1.4 8.2,4.6 11.3,11.2 10.1,21 7.5,53.7 7.5,53.7 h -3.2 c 0,0 0.1,-33 -7.5,-48.4 C 195,2 183.3,7.4 183.3,7.4 Z"
   id="path172" />
	<circle
   class="st0"
   cx="180.10001"
   cy="5.5"
   id="ellipse174"
   r="5.5" />
	<path
   class="st0"
   d="m 130,50.4 v 0 c -3.1,1.4 -5.4,4.2 -7,8.3 -5.7,15.4 0.9,48.5 16.6,82.4 9.6,20.7 21.2,38.9 32.8,51.4 12,13 22.8,18.2 30.3,14.8 7.5,-3.4 10.4,-15 8.3,-32.5 -2,-16.9 -8.4,-37.5 -18,-58.2 C 183.4,95.9 171.8,77.7 160.2,65.2 148.3,52.2 137.5,47 130,50.4 Z m 59.7,67.8 c 20.8,44.9 22.8,80.6 11.5,85.7 -11.3,5.1 -37.2,-19.5 -58,-64.4 -11.6,-25.1 -18.3,-50.3 -18.3,-67.1 -0.1,-4.2 0.5,-8.4 1.8,-12.5 1.2,-3.1 2.8,-5.2 5,-6.2 11.2,-5.1 37.2,19.6 58,64.5 z"
   id="path176" />
	<path
   class="st0"
   d="m 130.5,49.1 c 4.2,-1.6 10.1,0.4 10.1,0.4 3.9,1.6 7.6,3.7 10.8,6.5 10.6,8.8 19,22 19,22 l -2.9,1.8 c 0,0 -7.8,-12.1 -16.7,-19.4 -3.3,-2.7 -7,-4.7 -11.1,-6 0,0 -4,-1.2 -7.1,0 -2.4,0.9 -4.2,4.4 -4.2,4.4 -2.4,4.9 -2.2,13.3 -2.2,13.3 l -5.7,0.4 c 0,0 -0.1,-10.6 3.5,-16.7 0.1,-0.1 2.4,-5.2 6.5,-6.7 z"
   id="path178" />
	<circle
   class="st0"
   cx="123.8"
   cy="75.400002"
   id="ellipse180"
   r="4.8000002" />
	<path
   class="st0"
   d="m 162,97.8 c -24,3.6 -46.1,10 -62.3,18 -16.8,8.3 -25.3,17.6 -24,26.1 v 0 c 0.5,3.5 2.7,6.7 6.4,9.4 14.1,10.3 50,13.3 89.2,7.3 24,-3.6 46.1,-10 62.3,-18 16.8,-8.3 25.3,-17.6 24,-26.1 C 256.3,106 245.4,99.7 226.8,96.7 209.1,93.8 186,94.2 162,97.8 Z m -82.7,42.5 c 0,-12.9 32.5,-31.1 83.3,-38.8 52.2,-7.9 89.4,0.7 91.4,13.6 2,12.9 -31,32 -83.2,39.9 -37.8,5.7 -73.3,3 -86.5,-6.7 -2.9,-2.1 -4.5,-4.4 -4.9,-6.9 -0.1,-0.3 -0.1,-0.7 -0.1,-1.1 z"
   id="path182" />
	<path
   class="st0"
   d="m 133.1,157.3 c 0,0 -28,0.2 -42.2,-5.9 -5.8,-2.5 -9.8,-5.5 -10.9,-8.9 -1.1,-3.4 0.8,-7.6 0.8,-7.6 L 76,138 c 2.5,8.1 8.4,14.6 16.2,17.9 15.4,6.4 41.2,6.1 41.2,6.1 z"
   id="path184" />
	<circle
   class="st0"
   cx="135.8"
   cy="159.5"
   id="ellipse186"
   r="4.5" />
	<path
   class="st0"
   d="m 107.8,94.1 v 0 c -3.3,5.6 0,14.5 9.4,25 9,10.1 22.6,20.7 38.3,29.9 15.7,9.2 31.7,15.9 44.9,18.8 13.8,3.1 23.3,1.7 26.6,-4 3.3,-5.7 0,-14.5 -9.4,-25 -9,-10.1 -22.6,-20.7 -38.3,-29.9 C 163.6,99.7 147.6,93 134.4,90.1 120.6,87 111.2,88.4 107.8,94.1 Z m 70,17.5 c 34.1,19.9 51.6,42.3 46.6,50.7 -5,8.4 -33.2,4 -67.2,-16 C 127,128.6 109.7,109 109.7,99 c 0,-1.2 0.3,-2.3 0.8,-3.3 5,-8.4 33.2,-4 67.3,15.9 z"
   id="path188" />
	<path
   class="st0"
   d="m 185.6,160.5 c 0,0 16.6,5 27.6,5 3.5,0.1 6.8,-1.1 9.4,-3.4 0.4,-0.4 0.6,-1 0.5,-1.5 l 5.8,0.2 c 0,0 -1,8.7 -13.5,8.7 -9.9,0.4 -30.8,-7 -30.8,-7 z"
   id="path190" />
	<ellipse
   class="st0"
   cx="226"
   cy="158.2"
   rx="4.9000001"
   ry="4.8000002"
   id="ellipse192" />
	<ellipse
   class="st0"
   cx="181.60001"
   cy="143.60001"
   rx="6.0999999"
   ry="6"
   id="ellipse194" />
</g>




<metadata
   id="metadata1345"><rdf:RDF><cc:Work
       rdf:about=""><dc:title>IAEA</dc:title></cc:Work></rdf:RDF></metadata></svg>
