<?xml version="1.0" encoding="UTF-8" standalone="no"?>
<svg
   viewBox="0 0 466 380"
   fill="#009edc"
   version="1.1"
   id="svg1112"
   sodipodi:docname="survivalscores_logo.svg"
   inkscape:version="1.1.1 (c3084ef, 2021-09-22)"
   width="466"
   height="380"
   inkscape:export-filename="/Users/arthur/survivalscores/build/images/survivalscores_logo.png.png"
   inkscape:export-xdpi="123.53684"
   inkscape:export-ydpi="123.53684"
   xmlns:inkscape="http://www.inkscape.org/namespaces/inkscape"
   xmlns:sodipodi="http://sodipodi.sourceforge.net/DTD/sodipodi-0.dtd"
   xmlns:xlink="http://www.w3.org/1999/xlink"
   xmlns="http://www.w3.org/2000/svg"
   xmlns:svg="http://www.w3.org/2000/svg">
  <defs
     id="defs1116" />
  <sodipodi:namedview
     id="namedview1114"
     pagecolor="#ffffff"
     bordercolor="#666666"
     borderopacity="1.0"
     inkscape:pageshadow="2"
     inkscape:pageopacity="0.0"
     inkscape:pagecheckerboard="0"
     showgrid="false"
     inkscape:zoom="1.0606602"
     inkscape:cx="203.17534"
     inkscape:cy="141.42135"
     inkscape:window-width="1722"
     inkscape:window-height="1120"
     inkscape:window-x="425"
     inkscape:window-y="84"
     inkscape:window-maximized="0"
     inkscape:current-layer="g1049"
     fit-margin-top="0"
     fit-margin-left="0"
     fit-margin-right="0"
     fit-margin-bottom="0" />
  <g
     id="g1049"
     transform="translate(-2,-18)"
     inkscape:export-filename="/Users/arthur/survivalscores/build/images/survivalscores_logo.png.png"
     inkscape:export-xdpi="123.53684"
     inkscape:export-ydpi="123.53684"
     style="fill:#008000">
    <g
       id="g3918"
       inkscape:export-filename="/Users/arthur/survivalscores/build/images/survivalscores_logo.png.png"
       inkscape:export-xdpi="123.53684"
       inkscape:export-ydpi="123.53684"
       style="fill:#00ff00;fill-opacity:1">
      <path
         id="branch"
         d="M 121,336 C 102,320 99,297 91,277 86,264 77,253 68,242 c 12,34 5,58 34,82 -5,-2 -10,-6 -14,-9 -23,-19 -57,-22 -71,-53 4,23 22,43 41,56 19,12 43,11 63,18 m 50,12 c 3,-1 7,-1 11,-2 -14,-2 -27,-7 -37,-16 -15,-14 -28,-28 -44,-39 17,34 23,48 51,54 0,0 -8,-1 -12,-2 -30,-6 -66,2 -88,-23 9,16 26,29 42,35 26,8 53,-1 77,-7 m 40,-2 c -48,0 -73,42 -120,14 23,28 60,30 90,11 12,-8 23,-19 38,-19 23,0 48,24 69,46 4,-3 7,-6 10,-9 -22,-21 -54,-43 -87,-43 M 76,299 c 0,0 -6,-11 -8,-18 -7,-27 -3,-60 -15,-86 2,15 -4,28 -5,42 -2,19 5,32 10,41 0,0 -7,-9 -10,-14 C 34,242 5,227 3,200 c -4,59 37,75 73,99 M 62,124 c 4,-8 6,-18 8,-27 -2,4 -4,8 -7,11 -19,16 -30,25 -35,50 l 2,-22 c 2,-22 -10,-46 3,-65 -13,14 -20,32 -20,50 0,24 14,41 15,64 4,-24 24,-41 34,-61 M 55,80 C 64,72 75,65 83,55 92,43 100,29 112,18 96,25 78,31 67,48 61,58 60,70 55,80 M 35,128 C 39,120 46,112 53,106 71,93 89,76 90,54 80,78 49,82 42,107 c 0,0 4,-15 5,-18 5,-17 4,-37 21,-48 -33,7 -35,43 -33,70 0,6 1,11 0,17 m 5,116 c 0,0 -2,-19 1,-27 8,-24 16,-50 15,-75 -8,30 -33,40 -22,81 -4,-8 -5,-17 -8,-25 -6,-22 -23,-41 -18,-67 -8,23 -8,41 0,65 5,18 23,31 32,48"
         style="fill:#00ff00;fill-opacity:1" />
      <use
         transform="matrix(-1,0,0,1,470,0)"
         xlink:href="#branch"
         id="use1094"
         style="fill:#00ff00;fill-opacity:1"
         x="0"
         y="0"
         width="100%"
         height="100%" />
    </g>
    <g
       id="g3834"
       transform="rotate(45,243.89602,168.17687)"
       inkscape:export-filename="/Users/arthur/survivalscores/build/images/survivalscores_logo.png.png"
       inkscape:export-xdpi="123.53684"
       inkscape:export-ydpi="123.53684"
       style="fill:#00ff00;fill-opacity:1">
      <rect
         style="opacity:1;fill:#00ff00;fill-opacity:1;stroke:none;stroke-width:2.78033"
         id="rect3314"
         width="42.255611"
         height="229.15729"
         x="244.25018"
         y="47.375149" />
      <rect
         style="fill:#00ff00;fill-opacity:1;stroke:none;stroke-width:1.99927"
         id="rect3314-2"
         width="42.255611"
         height="118.49062"
         x="-280.42908"
         y="167.575"
         transform="rotate(-90)" />
    </g>
  </g>
</svg>
