<svg xmlns="http://www.w3.org/2000/svg" xmlns:xlink="http://www.w3.org/1999/xlink" width="466" height="466" fill="#009edc"><g style="fill:green"><g style="fill:green;fill-opacity:1" transform="translate(-2 -18)"><path id="a" d="M121 336c-19-16-22-39-30-59-5-13-14-24-23-35 12 34 5 58 34 82-5-2-10-6-14-9-23-19-57-22-71-53 4 23 22 43 41 56 19 12 43 11 63 18m50 12c3-1 7-1 11-2-14-2-27-7-37-16-15-14-28-28-44-39 17 34 23 48 51 54 0 0-8-1-12-2-30-6-66 2-88-23 9 16 26 29 42 35 26 8 53-1 77-7m40-2c-48 0-73 42-120 14 23 28 60 30 90 11 12-8 23-19 38-19 23 0 48 24 69 46 4-3 7-6 10-9-22-21-54-43-87-43M76 299s-6-11-8-18c-7-27-3-60-15-86 2 15-4 28-5 42-2 19 5 32 10 41 0 0-7-9-10-14-14-22-43-37-45-64-4 59 37 75 73 99M62 124c4-8 6-18 8-27-2 4-4 8-7 11-19 16-30 25-35 50l2-22c2-22-10-46 3-65-13 14-20 32-20 50 0 24 14 41 15 64 4-24 24-41 34-61m-7-44c9-8 20-15 28-25 9-12 17-26 29-37-16 7-34 13-45 30-6 10-7 22-12 32m-20 48c4-8 11-16 18-22 18-13 36-30 37-52-10 24-41 28-48 53 0 0 4-15 5-18 5-17 4-37 21-48-33 7-35 43-33 70 0 6 1 11 0 17m5 116s-2-19 1-27c8-24 16-50 15-75-8 30-33 40-22 81-4-8-5-17-8-25-6-22-23-41-18-67-8 23-8 41 0 65 5 18 23 31 32 48" style="fill:green;fill-opacity:1"/><use xlink:href="#a" width="100%" height="100%" style="fill:green;fill-opacity:1" transform="matrix(-1 0 0 1 470 0)"/></g><g style="fill:green;fill-opacity:1"><path d="M244.25 47.375h42.256v229.157H244.25z" style="opacity:1;fill:green;fill-opacity:1;stroke:none;stroke-width:2.78033" transform="rotate(45 264.624 156.763)"/><path d="M-280.429 167.575h42.256v118.491h-42.256z" style="fill:green;fill-opacity:1;stroke:none;stroke-width:1.99927" transform="rotate(-45 -76.27 -297.965)"/></g></g></svg>