<?xml version="1.0" encoding="UTF-8" standalone="no"?>
<!-- Generator: Adobe Illustrator 22.1.0, SVG Export Plug-In . SVG Version: 6.00 Build 0)  -->

<svg
   version="1.1"
   id="Layer_1"
   x="0px"
   y="0px"
   viewBox="0 0 97.499999 81.699995"
   xml:space="preserve"
   sodipodi:docname="Preparatory_Commission_for_the_Comprehensive_Nuclear-Test-Ban_Treaty_Organization_Logo.svg"
   width="97.5"
   height="81.699997"
   inkscape:version="1.2.2 (b0a84865, 2022-12-01)"
   xmlns:inkscape="http://www.inkscape.org/namespaces/inkscape"
   xmlns:sodipodi="http://sodipodi.sourceforge.net/DTD/sodipodi-0.dtd"
   xmlns="http://www.w3.org/2000/svg"
   xmlns:svg="http://www.w3.org/2000/svg"
   xmlns:rdf="http://www.w3.org/1999/02/22-rdf-syntax-ns#"
   xmlns:cc="http://creativecommons.org/ns#"
   xmlns:dc="http://purl.org/dc/elements/1.1/"><defs
   id="defs199">
	

		
		
		
		
		
		
		
		
		
		
		
		
		
		
		
		
		
		
		
		
		
		
		
		
		
		
		
		
		
	</defs><sodipodi:namedview
   id="namedview197"
   pagecolor="#ffffff"
   bordercolor="#000000"
   borderopacity="0.25"
   inkscape:showpageshadow="2"
   inkscape:pageopacity="0.0"
   inkscape:pagecheckerboard="0"
   inkscape:deskcolor="#d1d1d1"
   showgrid="false"
   inkscape:zoom="2.2306238"
   inkscape:cx="-45.502967"
   inkscape:cy="66.79746"
   inkscape:window-width="1309"
   inkscape:window-height="456"
   inkscape:window-x="0"
   inkscape:window-y="38"
   inkscape:window-maximized="0"
   inkscape:current-layer="Layer_1" />
<style
   type="text/css"
   id="style132">
	.st0{fill:#231F20;}
</style>
<title
   id="title134">Asset 1</title>
<path
   class="st0"
   d="M 97.5,38.9 C 91.8,16.6 72.3,0 48.9,0 25.5,0 5.8,16.6 0,38.9 H 27.3 C 33.7,19.8 54.4,9.6 73.5,16 84.3,19.6 92.8,28.1 96.4,38.9 Z"
   id="path136" /><path
   class="st0"
   d="m 0,42.8 c 5.8,22.3 25.6,38.9 48.9,38.9 23.3,0 42.8,-16.6 48.6,-38.9 H 70.2 C 65.2,57.6 51.3,67.6 35.7,67.6 19.9,67.6 6.6,57.5 1.5,42.8 Z"
   id="path138" /><path
   class="st0"
   d="m 32.7,41 c -0.2,-9 6.9,-16.4 15.9,-16.5 0.1,0 0.2,0 0.3,0 8.6,0 15.8,7.2 15.8,16.6 0,9 -7.2,16.5 -15.8,16.5 C 39.9,57.4 32.7,50 32.7,41 Z m 8,0 c 0,4.5 3.7,8.2 8.2,8.3 4.3,0 7.9,-4 7.9,-8.3 0,-4.5 -3.6,-8.1 -8.1,-8.1 -4.4,0 -8.1,3.6 -8,8.1 -0.1,0 -0.1,0 0,0 z"
   id="path140" />
<metadata
   id="metadata1454"><rdf:RDF><cc:Work
       rdf:about=""><dc:title>Asset 1</dc:title></cc:Work></rdf:RDF></metadata></svg>
