<?xml version="1.0" encoding="UTF-8" standalone="no"?>
<!-- Created with Inkscape (http://www.inkscape.org/) -->

<svg
   version="1.0"
   width="637.79529"
   height="545.72821"
   id="svg2545"
   sodipodi:docname="International_Criminal_Court_logo.svg"
   inkscape:version="1.2.2 (b0a84865, 2022-12-01)"
   xmlns:inkscape="http://www.inkscape.org/namespaces/inkscape"
   xmlns:sodipodi="http://sodipodi.sourceforge.net/DTD/sodipodi-0.dtd"
   xmlns="http://www.w3.org/2000/svg"
   xmlns:svg="http://www.w3.org/2000/svg">
  <sodipodi:namedview
     id="namedview169"
     pagecolor="#ffffff"
     bordercolor="#000000"
     borderopacity="0.25"
     inkscape:showpageshadow="2"
     inkscape:pageopacity="0.0"
     inkscape:pagecheckerboard="0"
     inkscape:deskcolor="#d1d1d1"
     showgrid="false"
     inkscape:zoom="0.40612467"
     inkscape:cx="306.55612"
     inkscape:cy="273.31509"
     inkscape:window-width="1309"
     inkscape:window-height="456"
     inkscape:window-x="0"
     inkscape:window-y="38"
     inkscape:window-maximized="0"
     inkscape:current-layer="svg2545" />
  <defs
     id="defs2547" />
  <g
     transform="translate(-86.181725,-265.17698)"
     id="layer1">
    <g
       transform="translate(17.716529,17.687063)"
       id="g2588">
      <path
         d="m 593.30756,498.27689 c 0,0 0,0 -0.23172,0 l -2.78137,-5.21501 h -0.1159 L 506.38974,340.89763 H 268.46663 l -0.81125,1.62249 -85.64304,155.75677 h 0.23181 -0.11591 c -0.1159,0 -0.1159,0 -0.1159,0 0,0 0,0.1159 0.1159,0.23181 l -0.1159,0.1159 h 0.34771 c 5.33092,5.91036 83.44112,88.1926 172.32906,0 h 0.34771 l -0.1159,-0.23181 c 0.1159,0 0.1159,0 0.1159,-0.1159 h -0.1159 v 0 0 l -1.73831,-3.3608 -1.04306,-1.85421 h -0.1159 l -80.54385,-146.48562 0.11591,-0.23172 h 110.55951 c 0,0.69534 -0.81125,11.47318 -14.60226,182.99098 -0.92706,23.75759 -11.00955,31.52225 -18.89011,33.9559 h -87.84497 c -7.41704,0 -13.32739,5.56273 -13.32739,12.40032 0,6.83751 5.91035,12.28433 13.32739,12.28433 h 256.00197 c 7.30113,0 13.32748,-5.44682 13.32748,-12.28433 0,-6.83759 -6.02635,-12.40032 -13.32748,-12.40032 h -90.0468 c -7.99647,-2.31774 -18.19487,-10.19831 -19.12193,-33.9559 -13.6751,-171.5178 -14.48635,-182.29564 -14.60226,-182.99098 h 110.21189 l -80.77566,146.71734 v 0 l -2.78136,5.21501 h 0.11581 v 0 h -0.23172 c 0.11591,0.1159 0.11591,0.1159 0.11591,0.1159 l -0.11591,0.23181 h 0.34763 c 89.35156,88.1926 167.69347,5.91036 173.02448,0 h 0.34763 l -0.11591,-0.1159 c 0.11591,-0.11591 0.11591,-0.23181 0.11591,-0.23181 z M 346.11329,493.06188 H 190.93596 l 77.53067,-141.0387 z m 82.39806,0 77.76248,-141.27051 77.87839,141.27051 H 428.51135"
         style="fill:#003366;fill-rule:nonzero;stroke:none"
         id="path26" />
      <path
         d="m 471.50669,778.61589 c 0,0 -67.9118,-78.80553 -147.5285,-56.78634 -36.62136,14.94988 -58.17702,25.4959 -69.99782,27.81374 -11.70499,2.08602 -39.28691,4.28795 -56.091,-7.06932 30.82682,28.16136 59.4518,29.89976 80.54384,25.95943 21.09205,-4.05614 42.18418,-21.20795 47.63101,-25.61171 5.56272,-4.28795 25.6118,-28.16145 64.551,-12.74795 28.16136,13.21148 63.97147,52.03477 69.99782,58.98818 10.89365,-10.54603 10.89365,-10.54603 10.89365,-10.54603"
         style="fill:#003366;fill-rule:nonzero;stroke:none"
         id="path28" />
      <path
         d="m 323.51457,720.32306 c -0.11581,0 -31.52216,13.21148 -31.52216,13.21148 -18.42658,7.88056 -30.5951,12.97976 -38.35976,14.48625 -3.59261,0.69535 -35.81011,6.14226 -54.81613,-6.8375 l -1.97021,2.43374 c 0,0.11581 0.11591,0.23172 0.11591,0.23172 25.14827,22.83044 52.61429,31.63816 81.81871,26.19124 14.02273,-2.66546 30.24738,-11.24136 48.09453,-25.72762 0.23172,-0.1159 2.31774,-1.97021 2.31774,-1.97021 7.30113,-6.60569 26.65487,-24.22103 60.84249,-10.66193 27.2343,12.74795 62.11735,49.94884 69.30257,58.52474 l 1.15887,1.27478 13.21148,-12.74795 -1.04296,-1.15887 c -0.69534,-0.81125 -69.41839,-79.26907 -149.15108,-57.24987 z m -69.18658,30.82682 c 7.99647,-1.50659 20.28089,-6.7217 38.82329,-14.71807 l 31.40635,-13.09567 c 74.16987,-20.51261 138.60496,48.44225 144.74713,55.16385 -1.6224,1.62249 -6.95341,6.72169 -8.69172,8.34418 -8.92362,-10.19839 -42.4159,-45.54497 -69.41839,-58.06111 -36.04192,-14.37045 -56.43862,4.17204 -64.20328,11.24136 l -1.85431,1.73831 c -17.61533,14.13863 -33.37646,22.59863 -47.05147,25.14827 -24.91647,4.75148 -48.55816,-1.97021 -70.57735,-18.7743 19.58555,6.8376 43.57486,3.59261 46.81975,3.01318"
         style="fill:#003366;fill-rule:nonzero;stroke:none"
         id="path30" />
      <path
         d="m 308.7965,718.23694 c 0,0 -43.80658,9.38715 -60.26305,14.13863 -16.45637,4.86748 -72.08384,5.79454 -104.53315,-43.57476 25.72771,21.09204 57.24987,21.09204 69.88191,20.62851 12.74795,-0.34772 45.54498,4.51976 61.65373,7.53285 -0.34762,-3.01309 -16.57228,-6.6057 -21.43976,-9.15534 -4.86738,-2.54956 -18.54239,-6.6057 -35.11477,-42.76353 -5.56273,-11.00964 -6.48988,-17.15181 -10.31421,-20.5126 6.95341,1.04296 20.51261,15.64512 24.68466,20.04898 4.17204,4.40386 29.43613,33.49237 43.80658,40.90931 14.37044,7.53294 21.43976,11.12555 31.63806,12.74795"
         style="fill:#003366;fill-rule:nonzero;stroke:none"
         id="path32" />
      <path
         d="m 207.62414,645.80547 c 2.08603,1.73831 3.24499,4.51967 4.9833,8.80762 l 4.98329,11.12555 c 15.41341,33.72409 28.27727,39.86626 34.41943,42.87943 l 1.27487,0.57944 8.92353,3.24498 c 0.92715,0.34763 2.20193,0.81116 3.3608,1.15888 -16.57228,-2.66546 -40.79341,-6.02626 -51.68715,-5.67864 -28.16136,0.81125 -51.33942,-6.02626 -68.83886,-20.3967 l -2.43374,2.20193 c 31.29045,47.39919 86.10658,50.18055 106.38747,44.1542 16.10875,-4.75148 59.68352,-13.90682 60.14714,-14.02272 l -0.11591,-3.12899 c -10.08249,-1.7384 -17.1518,-5.33101 -31.17453,-12.63214 -12.16852,-6.37398 -32.79703,-29.08842 -40.56169,-37.66432 l -2.78136,-3.01318 -1.04297,-1.04306 c -8.69181,-9.15534 -18.42658,-18.5424 -24.56884,-19.35364 z m 55.51157,63.62385 -8.34409,-3.01318 -1.39078,-0.69534 c -5.44682,-2.54955 -17.96296,-8.69181 -32.91284,-41.37284 0,-0.1159 -4.98329,-11.00964 -4.98329,-11.00964 -0.92716,-2.43365 -2.08603,-3.59261 -3.12908,-5.33092 6.37397,3.70842 15.06578,12.63205 18.7743,16.57228 l 1.04296,1.04306 2.66555,3.01317 c 7.88057,8.57582 28.85671,31.75398 41.60466,38.35967 10.89373,5.67863 17.73124,9.15534 25.03237,11.24136 -13.09567,2.89727 -41.02531,8.92362 -53.42555,12.63214 -18.42658,5.44682 -66.17349,3.01308 -96.8844,-35.34658 16.92,10.89364 37.89613,16.34047 62.8126,15.52931 12.16851,-0.34771 43.80658,4.17205 61.1902,7.41694 l 2.08602,0.46353 -0.23181,-2.20183 c 0,-0.46363 -0.92715,-0.81125 -1.27478,-1.27487 v 0 c 0,0 -0.1159,-0.11582 -0.1159,-0.11582 -1.50659,-1.8543 -4.98329,-3.47679 -12.51614,-5.91044"
         style="fill:#003366;fill-rule:nonzero;stroke:none"
         id="path34" />
      <path
         d="m 227.90494,700.6216 c 0,0 -22.0191,-6.02625 -38.35966,-8.34409 -16.45647,-2.20193 -73.82225,-16.68819 -96.189069,-84.02055 22.598629,26.30715 27.697739,27.92955 40.909309,34.53534 13.32739,6.60578 53.42545,29.43613 67.33237,41.95236 4.05614,2.31775 4.05614,2.31775 4.05614,2.31775 0,0 1.39068,-1.73831 -4.75149,-6.95341 -5.91044,-5.33092 -26.19124,-23.75751 -29.32032,-65.01453 -2.54955,-18.19478 -6.60579,-34.76715 -7.88056,-36.96908 9.15534,5.21511 19.93317,26.30715 22.1351,32.21759 2.20193,6.02626 17.0359,47.63101 19.00602,52.6143 1.85421,4.86739 13.90682,31.29035 23.06216,37.66432"
         style="fill:#003366;fill-rule:nonzero;stroke:none"
         id="path36" />
      <path
         d="m 162.31098,578.82073 c 1.04305,1.85431 5.09919,17.96306 7.64875,36.50555 1.50659,19.35364 7.88056,46.58794 29.89976,65.94168 0.1159,0 0.1159,0 0.1159,0.1159 -15.2975,-12.63213 -51.68714,-33.37646 -65.01453,-39.98225 l -2.08602,-1.15887 c -11.47317,-5.67863 -17.26771,-8.46 -38.243849,-33.02884 l -2.78137,1.50659 c 24.336939,73.35872 90.046809,84.25236 97.463849,85.17951 16.10875,2.08603 37.89613,8.3441 38.12794,8.3441 l 1.39068,-2.78137 c -8.46,-6.02635 -20.28079,-31.17453 -22.59863,-37.08498 l -18.89011,-52.4983 c -2.08603,-5.44691 -12.97976,-27.46611 -22.83045,-33.14474 z m 44.61782,109.16883 c 0.34772,-0.34763 0.46353,-0.81125 0.46353,-1.39068 0,-1.50659 -1.04296,-3.94024 -5.44682,-7.64876 -21.09204,-18.7743 -27.35011,-45.08135 -28.7408,-63.97156 -1.73839,-12.51614 -4.28795,-24.68465 -6.25806,-31.75397 7.64875,7.64875 15.52931,22.71454 17.38352,27.69783 l 19.00602,52.6143 c 1.27478,3.3608 10.77784,24.22112 19.70136,34.18761 -7.41694,-1.85421 -21.67148,-5.44682 -33.37637,-6.95341 -6.72169,-0.92706 -64.78281,-11.24136 -90.858149,-74.05396 15.761129,17.49943 22.250919,21.32385 32.565219,26.42305 l 2.20193,1.04297 c 13.79092,6.95341 53.30954,29.43613 66.98465,41.72056 0.23181,0.23181 4.40386,2.54964 4.40386,2.54964 l 1.15887,0.69534 0.81124,-1.15896"
         style="fill:#003366;fill-rule:nonzero;stroke:none"
         id="path38" />
      <path
         d="m 166.59893,645.68957 c 0,0 -27.58193,-16.10875 -42.76362,-27.92965 -15.18159,-11.9367 -57.829299,-42.99533 -53.425449,-98.15918 6.60579,17.84715 17.38353,34.07181 29.08852,43.92249 11.704889,9.96658 32.912839,41.25703 38.012039,48.55806 4.98329,7.30113 8.45999,9.27125 8.45999,9.27125 0,0 1.6225,-3.59262 -4.05614,-9.85068 -4.17204,-6.7216 -11.70498,-22.48273 -7.64875,-56.90216 5.0992,-31.98578 6.95341,-39.63453 6.02626,-44.61783 4.40386,11.24137 10.1984,35.46249 12.40033,73.35863 1.27477,21.43976 3.70842,38.01204 6.48988,45.31316 2.89717,7.18523 7.41694,17.03591 7.41694,17.03591"
         style="fill:#003366;fill-rule:nonzero;stroke:none"
         id="path40" />
      <path
         d="m 138.78519,510.3295 c 0.11591,0.69534 0.11591,1.50659 0.11591,2.43374 0,3.59261 -0.92706,9.27124 -2.89727,21.32385 l -3.2449,20.2808 c -0.81124,6.8375 -1.27477,13.09557 -1.27477,19.00602 0,16.22466 3.01308,29.32032 9.03943,38.93919 1.97012,2.08603 2.89727,3.70852 3.47671,5.0992 -1.39069,-1.39068 -3.12908,-3.24499 -5.21511,-6.25807 0,0 -1.7383,-2.43374 -1.7383,-2.43374 -6.95341,-10.1983 -25.72772,-37.20079 -36.50555,-46.35613 -11.473079,-9.73487 -22.135009,-25.84362 -28.740789,-43.34305 l -3.01318,0.46353 c -4.28795,54.00497 35.346579,84.83179 52.266579,98.15927 l 1.7384,1.27478 c 15.06578,11.8208 42.64771,28.04545 42.87943,28.16136 l 2.31783,-1.97012 -7.30113,-17.0359 c -2.78136,-7.41704 -5.21501,-24.10522 -6.48979,-44.84964 -2.66555,-45.8926 -10.19839,-68.14361 -12.40032,-73.82225 z m 0.34772,24.22112 c 1.27478,-7.30113 1.97012,-11.9367 2.43365,-15.64522 3.12908,10.89374 7.53294,31.29044 9.50305,64.551 1.27478,20.97614 3.70852,38.01204 6.7217,45.7767 0,0 3.24489,7.53294 5.33091,12.63204 -8.22818,-4.98329 -26.88658,-16.45637 -38.35975,-25.37999 l -1.73831,-1.39068 C 107.37894,602.81014 71.684641,574.9964 71.684641,527.48131 c 0,-0.57944 0,-1.15888 0,-1.7384 6.83751,15.76112 16.10875,30.01566 26.77068,39.05509 10.546019,8.80772 29.088509,35.6943 36.041919,45.7768 l 1.62249,2.43364 c 5.21511,7.41704 8.92362,9.61897 9.03944,9.73478 l 1.62249,0.92715 0.57944,-1.7384 c 0.34771,-0.46353 1.8543,-4.75148 -4.28796,-11.58899 -7.64875,-12.28442 -10.08239,-31.05863 -7.18522,-55.51156 0,0 3.24499,-20.2808 3.24499,-20.2808"
         style="fill:#003366;fill-rule:nonzero;stroke:none"
         id="path42" />
      <path
         d="m 120.70632,568.85415 c 0,0 -9.50305,-14.83398 -18.07896,-24.56875 -8.575809,-9.50297 -46.472029,-52.38248 -26.886579,-124.69814 0,16.80418 2.31784,26.30715 4.05623,32.3335 1.97012,5.91035 20.744329,46.24022 22.598639,57.13396 1.85421,10.89374 4.98329,31.40635 9.38715,33.72409 1.6224,-1.04297 -0.23181,-4.63558 -0.81125,-7.99638 -0.69534,-3.24498 -6.14226,-31.29044 10.31421,-61.76963 14.94988,-26.77068 17.73124,-29.32032 19.93317,-38.59157 0.69534,17.49953 -4.98329,52.15077 -9.50305,66.75293 -4.40377,14.48635 -16.34057,48.21044 -11.00956,67.67999"
         style="fill:#003366;fill-rule:nonzero;stroke:none"
         id="path44" />
      <path
         d="m 101.46849,545.44436 c 8.3441,9.38706 17.84715,24.10513 17.84715,24.22103 l 2.89727,-1.27477 c -4.63567,-16.92 4.51967,-45.89261 9.38715,-61.53783 l 1.6224,-5.2151 c 4.28796,-13.90682 10.31431,-49.02159 9.61897,-67.33227 l -3.12909,-0.34772 c -1.62249,6.37398 -3.36079,9.61887 -9.50305,20.16499 l -10.31421,18.19477 c -9.73478,17.96296 -11.93671,35.23067 -11.93671,47.28328 0,7.06932 0.81125,11.93671 1.27478,14.48635 -2.08602,-7.06931 -3.94023,-17.38362 -4.98329,-22.94635 l -0.34763,-2.31783 c -1.27487,-7.64875 -10.082489,-28.16136 -16.572369,-43.11124 l -5.91044,-14.25453 c -1.73831,-5.56273 -4.05615,-15.0657 -4.05615,-31.86988 l -3.12898,-0.46353 c -12.86386,47.39919 -3.12909,92.24883 27.234199,126.32063 z m 2.31784,-2.20193 C 82.694281,519.71665 71.916451,490.74405 71.916451,459.3377 c 0,-8.80762 1.15887,-17.73124 2.78137,-26.77068 0.81124,9.38715 2.31783,15.64522 3.59261,19.81727 0,0 6.14216,14.60216 6.14216,14.60216 6.02635,13.90692 15.18169,35.11486 16.340559,42.30008 0,0 0.34772,2.43365 0.34772,2.43365 2.89718,16.34056 5.56273,30.13157 9.96649,32.44931 l 0.81125,0.34772 0.81125,-0.46362 c 0.92715,-0.57944 1.27477,-1.6224 1.27477,-2.66546 0,-1.27478 -0.34762,-2.66546 -0.81115,-4.05614 l -0.69534,-2.78137 c -0.46363,-2.08602 -1.39078,-7.41703 -1.39078,-15.06578 0,-11.58899 2.20193,-28.27726 11.70499,-45.66079 l 10.1984,-18.07896 c 2.89717,-5.0992 4.86738,-8.46 6.25807,-11.47318 -0.92716,18.77431 -5.56273,44.84964 -9.03953,56.43872 l -1.6224,5.21501 c -4.28795,13.5592 -10.89374,34.30362 -10.89374,51.33952 0,1.85421 0.46362,3.4767 0.69534,5.21501 -3.59261,-5.21501 -9.15534,-13.09557 -14.60216,-19.23774"
         style="fill:#003366;fill-rule:nonzero;stroke:none"
         id="path46" />
      <path
         d="m 104.82929,480.89337 c 0,0 -5.678629,-23.06226 -12.632039,-41.48884 -6.95341,-18.5424 -20.2808,-61.53783 14.254539,-106.38737 -7.301129,17.84705 -4.40386,29.43613 -4.40386,31.40625 0,1.97012 4.28795,41.60465 4.40386,51.45543 0.1159,12.63204 -2.20193,34.41943 -2.20193,34.41943 0,0 0.81124,2.66545 2.54964,0 1.04297,-1.6225 3.3608,-29.78386 20.2808,-46.58795 15.64522,-15.64522 28.39317,-27.46602 31.86988,-33.9559 0,11.47308 -6.60579,28.39317 -12.05261,37.54851 -5.33101,9.27125 -27.46602,39.63454 -32.56522,49.83284 -4.98329,10.3143 -9.50306,22.48282 -9.50306,23.7576"
         style="fill:#003366;fill-rule:nonzero;stroke:none"
         id="path48" />
      <path
         d="m 90.690661,439.98406 c 6.8376,18.07886 12.516229,41.14102 12.632049,41.37284 l 3.12908,-0.34763 c 0.1159,-1.27487 4.28795,-12.74795 9.38715,-23.06225 2.89727,-6.02626 11.8208,-19.12193 19.81726,-30.71092 l 12.63205,-19.12192 c 5.91044,-10.08249 12.16851,-27.00249 12.16851,-38.35976 l -2.89727,-0.81125 c -2.78136,5.21502 -11.82079,14.13864 -23.40987,25.49591 l -8.22819,8.11228 c -14.02282,13.90691 -18.31077,35.6943 -19.93317,43.80658 0,0 -0.34772,1.8543 -0.46363,2.66555 0.57953,-2.89727 2.43374,-33.14465 2.43374,-33.14465 l -3.24498,-40.6776 -1.15887,-12.28442 c -0.23181,-1.39068 -0.46353,-3.59261 -0.46353,-6.48978 0,-5.33101 0.92706,-13.09567 4.75148,-22.83045 l -2.66546,-1.62249 C 80.724071,363.84398 75.856691,400.11771 90.690661,439.98406 Z m 3.01318,-1.15897 c -5.44683,-14.60216 -8.22819,-28.74079 -8.22819,-42.29999 0,-19.00602 5.67863,-36.85317 16.340559,-53.65726 -1.27487,5.33092 -1.854299,10.0824 -1.854299,13.5592 0,3.01308 0.231809,5.33091 0.347709,6.8375 0.23172,1.15887 1.15887,12.28442 1.15887,12.28442 l 3.3608,40.32988 c 0,0 -2.20193,34.18761 -2.20193,34.18761 0.23182,1.04306 0.81125,2.78137 2.43374,2.89727 1.15888,0.23182 2.20193,-0.46353 3.01318,-1.85421 0,0 1.04297,-4.17204 1.04297,-4.17204 1.62249,-7.88057 5.67863,-28.8568 19.00602,-42.06828 0,0 8.34418,-8.22819 8.34418,-8.22819 9.50296,-9.38715 15.99285,-16.10884 20.16489,-21.55566 -1.50659,10.89374 -6.8375,24.22112 -11.12546,31.52225 l -12.51613,18.89012 c -7.99647,11.58908 -17.03591,24.80056 -20.04908,30.94272 -3.01318,6.14226 -6.02635,13.5592 -7.88057,18.7743 -2.20192,-7.88056 -6.373969,-23.29397 -11.357259,-36.38964"
         style="fill:#003366;fill-rule:nonzero;stroke:none"
         id="path50" />
      <path
         d="m 114.79588,402.31964 c 0,0 2.54964,-6.37398 0.23181,-32.10169 -2.43374,-25.72771 -3.4767,-60.84248 36.38964,-84.48418 -9.96659,16.68829 -11.58908,19.58556 -14.60226,33.26057 -3.01317,13.55919 -6.37397,35.34658 -11.82079,47.631 -2.20193,6.02635 -3.59261,10.77783 -2.54965,11.35727 0.92715,0.57943 1.39068,-0.46353 2.08612,-2.54955 0.92706,-2.08603 9.03943,-20.51261 25.49581,-32.2176 16.45646,-11.70489 31.29044,-23.40988 36.85316,-34.99886 -2.43364,21.43966 -10.54602,29.08851 -18.6583,39.86625 -8.80771,11.70499 -40.44578,36.15783 -45.77679,44.1543 -5.44682,7.88056 -7.64875,10.08249 -7.64875,10.08249"
         style="fill:#003366;fill-rule:nonzero;stroke:none"
         id="path52" />
      <path
         d="m 113.4052,370.33386 c 2.31783,24.68465 -0.11591,31.29044 -0.11591,31.29044 l 2.54965,1.85421 7.88056,-10.43012 c 2.43365,-3.59261 11.00955,-11.12545 19.93308,-19.12192 10.43021,-9.15534 21.20804,-18.6584 25.84362,-24.91647 0,0 3.24489,-4.17204 3.24489,-4.17204 6.95351,-8.92353 13.5592,-17.38362 15.76113,-36.38964 l -3.01318,-0.92706 c -5.56273,11.47308 -20.74432,23.29397 -36.38954,34.41943 -11.93671,8.45999 -19.46965,20.28079 -23.29398,27.35011 0.23172,-0.81116 0.34763,-1.04297 0.69534,-2.08602 4.17205,-9.27125 6.95342,-23.87341 9.61887,-36.62136 l 2.20193,-11.24137 c 3.01318,-13.21148 4.40386,-15.87703 14.48635,-32.79703 l -2.20193,-2.20193 c -42.87952,25.49591 -39.171,64.89872 -37.20088,85.99077 z m 4.17204,18.65839 c 0,-4.75157 -0.23172,-10.89374 -1.04296,-18.8902 -0.46362,-4.9833 -0.92715,-11.00956 -0.92715,-17.61534 0,-18.77421 5.56272,-42.06818 30.13157,-60.14715 -6.14226,10.43012 -7.99647,14.94989 -10.43021,26.30715 l -2.43365,11.24137 c -2.43374,12.63204 -5.33101,27.00249 -9.38715,36.15782 -2.20193,5.91045 -3.01318,9.15534 -3.01318,11.00956 0,1.27487 0.46363,1.8543 1.15897,2.31783 l 0.57943,0.34772 1.39068,-0.11591 c 1.27478,-0.46362 1.85422,-1.8543 2.43365,-3.70851 0.81125,-1.85422 9.03953,-20.04908 24.91647,-31.40635 13.09567,-9.27125 25.4959,-19.12193 32.91293,-28.8567 -2.66555,12.63204 -7.76466,19.70136 -13.6751,27.3502 l -3.24489,4.05614 c -4.51977,6.02626 -15.52932,15.87694 -25.38009,24.56875 -9.50297,8.46 -17.84706,15.76113 -20.51261,19.70136 0,0 -1.85421,2.54965 -3.70843,4.9833 0.11582,-1.97012 0.23172,-4.17205 0.23172,-7.30104"
         style="fill:#003366;fill-rule:nonzero;stroke:none"
         id="path54" />
      <path
         d="m 144.57973,334.06012 c 0,0 5.21511,-27.2342 15.64522,-43.34305 10.43012,-16.10875 32.10169,-30.36329 54.93204,-37.43261 -7.99638,6.72169 -12.86376,12.74795 -15.64513,17.61534 -2.78136,4.75158 -20.04908,31.75398 -27.92964,40.32988 -8.11237,8.5759 -21.09204,16.34056 -27.00249,22.83044"
         style="fill:#003366;fill-rule:nonzero;stroke:none"
         id="path56" />
      <path
         d="m 158.83427,289.79001 c -10.43012,16.22466 -15.52931,42.87943 -15.76113,43.92249 l 2.78137,1.39068 11.58908,-9.85068 15.18169,-12.97976 c 8.22819,-8.80772 25.61171,-35.92602 28.27726,-40.56169 3.2449,-5.67864 8.3441,-11.47318 15.29751,-17.26762 l -1.50659,-2.66556 c -24.10522,7.41704 -45.42907,22.0192 -55.85919,38.01214 z m 2.78137,1.7383 c 8.80771,-13.67501 26.42305,-26.07533 46.58794,-33.83999 -4.05614,4.17205 -7.64875,8.34409 -10.0824,12.40023 -2.66555,4.51977 -19.81727,31.40636 -27.81374,40.09816 0,0 -19.58545,16.57229 -23.17806,19.58546 1.97012,-8.34409 6.8375,-26.42296 14.48626,-38.24386"
         style="fill:#003366;fill-rule:nonzero;stroke:none"
         id="path58" />
      <path
         d="m 309.26012,780.70192 c 0,0 65.9416,-80.54385 146.02191,-60.49477 37.08498,14.02273 58.75646,23.98932 70.69316,25.84353 11.82089,1.97011 39.28691,3.4767 55.85928,-8.46 -30.13157,28.97261 -58.75645,31.52225 -79.84859,28.04555 -21.20795,-3.4768 -42.64762,-20.04908 -48.21044,-24.33703 -5.56273,-4.28796 -26.42296,-27.46602 -64.78272,-11.12546 -28.04545,13.90682 -62.8126,53.54135 -68.60714,60.72658 -11.12546,-10.1984 -11.12546,-10.1984 -11.12546,-10.1984"
         style="fill:#003366;fill-rule:nonzero;stroke:none"
         id="path60" />
      <path
         d="m 307.98526,779.65895 -0.92706,1.15887 13.55919,12.40033 1.04297,-1.39068 c 7.06931,-8.69181 41.14112,-46.81976 68.0277,-60.26305 33.72409,-14.37044 53.54136,2.78136 60.95839,9.27125 l 2.08603,1.7383 c 18.42658,14.02273 34.76714,22.36682 49.02168,24.68466 29.20433,4.63567 56.55453,-4.86739 81.00737,-28.27727 0.11591,-0.1159 0.11591,-0.1159 0.11591,-0.23181 l -1.97012,-2.43365 c -18.7743,13.44329 -51.1077,8.80762 -54.70032,8.22819 -7.76465,-1.27478 -19.81726,-6.02626 -38.12794,-13.32739 l -32.2176,-12.51614 c -80.31203,-20.16498 -147.18086,60.14715 -147.8762,60.95839 z m 146.94915,-57.94521 31.98578,12.51614 c 18.5424,7.30113 30.71091,12.16851 38.82328,13.44329 3.01318,0.46353 25.84353,3.59261 44.84955,-2.89727 -21.09204,16.45647 -43.92249,23.17807 -68.37533,19.23783 -13.5592,-2.20193 -29.55204,-10.1984 -47.28328,-23.87341 -0.23182,-0.1159 -2.20193,-1.73839 -2.20193,-1.73839 -7.88057,-6.83751 -28.74089,-24.91647 -64.4351,-9.61887 -26.53896,13.09557 -59.33589,49.2534 -68.0277,59.79942 -1.7384,-1.50659 -7.18523,-6.60579 -8.80772,-7.99647 5.91045,-6.95341 68.60724,-77.53067 143.47245,-58.87227"
         style="fill:#003366;fill-rule:nonzero;stroke:none"
         id="path62" />
      <path
         d="m 470.46372,716.26682 c 0,0 44.03839,8.11238 60.49477,12.51624 16.57237,4.40376 72.31565,3.94023 103.60609,-46.24032 -25.26409,21.78738 -56.90225,22.59863 -69.53429,22.48272 -12.63204,-0.1159 -45.42907,5.56273 -61.30601,9.03944 0.23181,-3.12899 16.34056,-7.06932 21.20795,-9.73478 4.75148,-2.66546 18.31068,-7.06932 33.9559,-43.69067 5.44682,-11.12546 6.14216,-17.38362 9.96658,-20.74442 -6.95341,1.27477 -20.16498,16.22465 -24.22112,20.62851 -4.17205,4.63558 -28.7408,34.30362 -42.87943,42.06827 -14.13863,7.99638 -21.20795,11.58899 -31.29044,13.67501"
         style="fill:#003366;fill-rule:nonzero;stroke:none"
         id="path64" />
      <path
         d="m 544.63359,658.20571 -1.15887,1.27477 -3.12908,3.4768 c -7.53285,8.69172 -27.46602,31.75397 -39.28682,38.24385 -14.37044,8.11228 -21.20795,11.47308 -30.94282,13.44329 v 3.12899 c 0.34772,0.11591 44.1543,8.22819 60.49486,12.51614 20.3967,5.56282 75.21293,1.39068 105.2285,-46.93557 l -2.31774,-1.97012 c -17.26772,14.83398 -40.32997,22.25092 -68.37542,22.01911 -11.00956,-0.11582 -34.99887,3.82442 -51.68715,7.06931 1.15887,-0.46353 2.43374,-0.92706 3.47671,-1.27477 l 8.69181,-3.47671 1.39068,-0.69534 c 5.56273,-2.78136 18.6584,-9.50296 33.37646,-43.69067 l 4.75149,-11.24137 c 1.62249,-4.28795 2.78136,-7.18522 4.63566,-8.92362 l -1.27486,-2.78136 c -6.02626,1.04306 -15.41341,10.54602 -23.87341,19.81727 z m -42.06818,45.8926 c 12.28433,-6.95341 31.86978,-29.43614 40.21397,-39.05501 l 3.01308,-3.36089 1.27487,-1.39068 c 3.59261,-3.94024 11.9367,-12.86386 18.07887,-16.80409 -0.92716,1.7384 -2.08603,3.01317 -3.01318,5.44682 l -4.63558,11.00964 c -14.25453,33.26056 -26.65477,39.51863 -31.98578,42.3 l -1.39068,0.69534 c 0,0 -8.22819,3.24489 -8.22819,3.24489 -7.53293,2.66555 -10.89373,4.40386 -12.40032,6.25816 0,0 -0.11591,0.11582 -0.11591,0.11582 v 0 c -0.34762,0.46362 -1.15887,0.92715 -1.27477,1.39077 l -0.11591,2.20184 2.08602,-0.57944 c 14.83398,-3.24489 47.97872,-9.03943 60.95839,-8.92353 24.91647,0.11591 45.77679,-5.79454 62.46498,-17.26771 -29.89976,39.28691 -77.53067,42.87952 -96.07316,37.89623 -12.40033,-3.36089 -40.56169,-8.80772 -53.77317,-11.24136 7.06932,-2.31784 13.79092,-5.79454 24.91647,-11.9368 z m 57.8293,-42.76352 v 0"
         style="fill:#003366;fill-rule:nonzero;stroke:none"
         id="path66" />
      <path
         d="m 551.00756,696.56546 c 0,0 21.67148,-6.7216 38.01204,-9.27124 16.45647,-2.66546 73.47462,-18.65831 94.10304,-86.5702 -21.90329,26.88659 -26.88658,28.62498 -39.98215,35.6943 -13.09567,6.83751 -52.7302,30.5951 -66.40521,43.45896 -4.05624,2.43364 -4.05624,2.43364 -4.05624,2.43364 0,0 -1.15887,-1.62249 4.63567,-6.95341 5.91045,-5.44682 25.72771,-24.45284 27.92955,-65.82577 2.08612,-18.19478 5.79454,-34.76715 7.06932,-37.2008 -9.03944,5.56273 -19.35365,27.0024 -21.43967,32.91285 -2.08603,6.02635 -15.99294,47.97862 -17.73125,52.96192 -1.8543,4.98329 -13.21157,31.63815 -22.1351,38.35975"
         style="fill:#003366;fill-rule:nonzero;stroke:none"
         id="path68" />
      <path
         d="m 589.36732,604.78026 -17.73124,52.96192 c -2.31784,6.14216 -13.4433,31.40634 -21.67148,37.54851 l 1.39068,2.78136 c 0.23172,0 21.90329,-6.72169 38.01204,-9.27124 7.30113,-1.15888 72.77919,-13.67511 95.37782,-87.61317 l -2.78137,-1.50658 c -20.62851,25.26409 -25.95943,28.04545 -37.54851,34.18771 l -2.08602,1.04296 c -12.97976,6.95341 -48.32634,28.27727 -63.73975,41.37294 21.43976,-20.04908 27.2343,-47.28329 28.27726,-66.63703 2.08603,-18.65839 5.67864,-34.65124 6.8376,-36.50554 l -2.31783,-2.20184 c -9.73478,6.02626 -20.04908,28.39308 -22.0192,33.84 z m -14.71807,54.00488 c 0,0 17.73125,-52.96192 17.73125,-52.96192 1.7383,-5.0992 9.27124,-20.2808 16.68818,-28.16136 -1.7383,7.06932 -3.94023,19.00602 -5.44682,31.63807 -1.50659,27.46611 -10.66193,49.25349 -27.35021,64.89871 -4.05614,3.70843 -5.21501,6.14217 -5.21501,7.64875 0,0.57944 0.11591,1.15888 0.46353,1.50659 l 0.81125,1.04297 5.2151,-3.12899 c 13.55911,-12.63205 52.61421,-36.15783 66.28931,-43.45896 l 1.97012,-1.04296 c 10.3143,-5.44692 16.68827,-9.38715 32.10168,-27.46611 -24.45293,63.50803 -82.28224,75.21292 -89.11975,76.37179 -11.58907,1.85431 -25.72771,5.67864 -33.14465,7.88057 8.69172,-10.0824 17.49943,-30.59501 19.00602,-34.76715"
         style="fill:#003366;fill-rule:nonzero;stroke:none"
         id="path70" />
      <path
         d="m 610.92289,640.12684 c 0,0 27.1184,-16.92 42.06828,-29.20442 14.83397,-12.16852 56.78634,-44.27011 51.10771,-99.31815 -6.25807,17.96306 -16.57238,34.41953 -28.04555,44.61783 -11.47308,10.1984 -31.86988,42.06827 -36.73727,49.48522 -4.98329,7.41703 -8.34409,9.50305 -8.34409,9.50305 0,0 -1.7383,-3.59261 3.82442,-10.08249 3.94024,-6.60569 11.24137,-22.71454 6.25807,-56.90216 -5.79454,-31.98578 -7.76465,-39.51872 -7.06931,-44.3861 -4.05614,11.24136 -9.27125,35.46248 -10.54602,73.47462 -0.69535,21.55557 -2.89727,38.12794 -5.56273,45.42898 -2.66555,7.41703 -6.95351,17.38362 -6.95351,17.38362"
         style="fill:#003366;fill-rule:nonzero;stroke:none"
         id="path72" />
      <path
         d="m 621.81663,577.31424 c -0.69534,20.74432 -2.78136,37.54841 -5.44682,44.84954 l -6.8376,17.38362 2.31784,1.97012 c 0.23181,-0.23181 27.3502,-17.15181 42.18418,-29.32032 l 1.7383,-1.39069 c 16.57237,-13.67501 55.51157,-45.42907 49.94884,-99.43395 l -3.12908,-0.34772 c -6.14217,17.84715 -16.22466,33.9559 -27.58193,44.03839 -10.54602,9.38715 -28.62498,36.85317 -35.46248,47.28329 l -1.6225,2.54964 c -2.08602,3.01308 -3.70842,4.86739 -4.98329,6.25807 0.46362,-1.27478 1.27487,-2.89727 3.01317,-4.98329 5.56273,-9.27125 8.3441,-21.67157 8.3441,-36.73727 0,-6.72169 -0.46353,-13.90691 -1.6224,-21.43976 0,-0.1159 -3.82443,-20.62851 -3.82443,-20.62851 -2.31783,-12.28442 -3.36079,-17.84715 -3.36079,-21.32385 0,-0.69535 0,-1.39069 0.1159,-1.97012 l -3.01317,-0.81125 c -2.20193,5.79454 -9.15534,28.27727 -10.77784,74.05406 z m -2.43365,46.00851 c 2.78137,-7.64885 4.98321,-24.80056 5.67855,-45.8927 1.15896,-33.26056 5.0992,-53.65726 7.99646,-64.66681 0.46363,3.59261 1.27478,8.22818 2.66546,15.1816 l 3.82443,20.5126 c 1.04305,7.53294 1.62249,14.60226 1.62249,21.09205 0,14.37044 -2.66555,26.19124 -7.76466,34.76714 -3.4767,4.05624 -4.28795,7.30113 -4.28795,9.27125 0,1.27477 0.34762,2.08602 0.46353,2.20193 l 0.69534,1.7384 1.50659,-0.92716 c 0.23181,-0.1159 3.82442,-2.43374 8.80771,-9.96658 l 1.73831,-2.54956 c 6.72169,-10.3143 24.56875,-37.54851 34.88305,-46.58794 10.31421,-9.27125 19.23783,-23.75759 25.61181,-39.63463 0.11581,1.27487 0.23172,2.66555 0.23172,3.94033 0,46.12442 -34.18762,74.16987 -49.36931,86.5702 l -1.73831,1.39068 c -11.24145,9.27124 -29.55213,21.20795 -37.66441,26.42296 1.97011,-4.98329 5.09919,-12.86376 5.09919,-12.86376"
         style="fill:#003366;fill-rule:nonzero;stroke:none"
         id="path74" />
      <path
         d="m 654.96129,562.01664 c 0,0 9.15533,-15.06578 17.49952,-24.91647 8.34409,-9.73477 45.31317,-53.65725 23.98931,-125.39347 0.34763,16.80418 -1.62249,26.42305 -3.36089,32.4494 -1.73831,5.91035 -19.46955,46.70385 -21.09204,57.59749 -1.73831,11.00965 -4.40386,31.52226 -8.80762,33.9559 -1.50659,-0.92706 0.34762,-4.63557 0.81115,-7.88056 0.57953,-3.3608 5.33101,-31.63807 -11.8208,-61.53782 -15.52931,-26.30705 -18.42658,-28.97261 -20.74442,-38.12795 -0.34762,17.49944 6.25816,52.03486 10.89374,66.40521 4.86739,14.48635 17.61534,47.86282 12.63205,67.44827"
         style="fill:#003366;fill-rule:nonzero;stroke:none"
         id="path76" />
      <path
         d="m 694.82763,411.7067 c 0,1.39068 0,2.89727 0,4.28795 0,11.00964 -1.04306,20.04908 -3.24489,27.69783 l -5.79454,14.94988 c -6.02635,14.94988 -14.25454,35.46249 -15.41351,42.87951 l -0.46353,3.12899 c -0.81124,5.67864 -2.31783,15.2976 -4.17204,22.0192 0.34771,-2.31784 0.92715,-6.25807 0.92715,-12.05261 0,-12.05261 -2.31783,-30.24738 -13.21157,-49.13759 0,0 -10.77774,-17.96296 -10.77774,-17.96296 -6.25817,-10.3143 -8.11238,-13.5592 -9.73487,-19.70136 l -3.24489,0.34762 c -0.23182,18.07896 6.60578,53.07783 11.12545,66.98474 l 1.85431,5.33092 c 5.21501,15.41341 15.06569,44.15429 10.77774,61.1902 l 2.89727,1.15887 c 0.1159,-0.11591 9.15534,-15.06579 17.38362,-24.68466 29.55204,-34.76714 38.12794,-79.8485 24.22112,-126.90006 z m -30.82691,125.39347 c 4.40386,-2.43364 6.72169,-15.99284 9.03953,-31.98568 l 0.46353,-3.01318 c 1.15887,-7.18522 9.61886,-28.27726 15.18169,-42.29999 l 5.91035,-15.18169 c 1.15896,-4.05614 2.31783,-11.12546 2.89727,-20.62851 2.31783,10.3143 3.70852,20.51261 3.70852,30.47919 0,30.13148 -10.0825,58.29293 -29.89976,81.5869 -5.21502,6.14216 -10.54603,14.02273 -14.02273,19.35364 0.11591,-1.27477 0.46353,-2.31774 0.46353,-3.59251 0,-17.15181 -7.30104,-38.59157 -12.05261,-52.38249 l -1.85421,-5.331 c -3.70852,-11.58908 -8.80772,-37.3167 -10.1984,-55.9751 1.50659,2.89727 3.36089,6.14216 6.37398,11.00964 l 10.77783,17.96297 c 10.43011,18.31068 12.63204,35.8102 12.63204,47.39918 0,6.48988 -0.69534,11.24137 -0.92706,12.97977 -0.1159,0 -0.81124,3.01317 -0.81124,3.01317 -0.23181,1.39068 -0.69534,2.66546 -0.69534,3.82433 0,1.15896 0.34762,2.20193 1.39068,2.78136 l 0.81125,0.46363 0.81115,-0.46363"
         style="fill:#003366;fill-rule:nonzero;stroke:none"
         id="path78" />
      <path
         d="m 668.75229,473.82405 c 0,0 5.21502,-23.29397 11.7049,-41.95237 6.48988,-18.6584 18.7743,-61.88554 -16.68819,-105.92384 7.64875,17.61534 5.0992,29.32023 5.21501,31.29035 0,1.97021 -3.4767,41.72056 -3.24489,51.57133 0.1159,12.63204 3.01317,34.30352 3.01317,34.30352 0,0 -0.81124,2.66546 -2.54964,0.11591 -1.15887,-1.7384 -4.05614,-29.78385 -21.32386,-46.12442 -16.10875,-15.18159 -29.08842,-26.65477 -32.68103,-33.14465 0.23172,11.58908 7.30104,28.16136 12.86377,37.3167 5.56282,9.03943 28.39317,38.93919 33.72418,49.02169 5.21501,10.08249 9.96658,22.1351 9.96658,23.52578"
         style="fill:#003366;fill-rule:nonzero;stroke:none"
         id="path80" />
      <path
         d="m 662.26241,326.64318 c 4.63558,10.31421 5.44683,18.5424 5.44683,23.87341 0,2.31783 -0.11591,4.05614 -0.23172,5.2151 l -0.92716,11.58899 -2.43374,41.48884 c 0,0 1.85431,21.09204 2.66556,30.24738 -1.97021,-8.92362 -6.60579,-29.66794 -20.86033,-42.99533 0,-0.11591 -8.80771,-8.46009 -8.80771,-8.46009 -11.58899,-10.89365 -20.74433,-19.46955 -23.5257,-24.45285 l -3.01317,0.81125 c 0.23181,11.35727 6.95341,28.04546 13.09557,38.12795 l 13.21158,19.00602 c 8.22818,11.24136 17.38352,24.10522 20.3967,29.89976 5.44682,10.31421 9.73477,21.67148 9.85068,22.94634 l 3.24489,0.23172 c 0,-0.23172 5.21511,-23.40987 11.58908,-41.83646 14.02273,-39.86625 8.3441,-76.02408 -17.0359,-107.43043 z m 5.67864,119.25123 c 1.62249,-0.23181 2.20193,-1.97012 2.31783,-2.31784 0,0 0,0 0,0 0,-1.27477 -3.01317,-34.76705 -3.01317,-34.76705 l 2.54955,-41.14112 0.69534,-10.43021 c 0.11591,-1.73831 0.34772,-3.94024 0.34772,-6.60569 0,-3.82443 -0.81125,-9.15534 -2.31784,-14.94988 11.58908,17.1518 17.73125,35.6942 17.73125,55.62737 0,12.86386 -2.43374,26.19125 -7.30113,39.98226 -4.63558,13.32738 -8.57591,28.8567 -10.43012,36.73726 -1.97012,-5.0992 -5.0992,-12.40033 -8.34409,-18.54249 -3.24499,-6.02626 -12.51614,-18.89012 -20.62851,-30.24738 L 626.4523,400.34943 c -5.0992,-8.22819 -10.3143,-20.86023 -12.05261,-31.17444 4.28786,5.21501 10.89365,11.70489 20.51261,20.86023 l 8.92353,8.22819 c 13.5592,12.86385 17.96305,33.02884 19.81726,41.60474 l 1.15888,4.17205 c 0.92715,1.39068 1.97021,1.97011 3.12908,1.85421"
         style="fill:#003366;fill-rule:nonzero;stroke:none"
         id="path82" />
      <path
         d="m 657.04731,395.36623 c 0,0 -2.66546,-6.25816 -0.92706,-31.98578 1.73831,-25.84362 1.97012,-60.95839 -38.35976,-83.67293 10.31421,16.57228 11.93671,19.46955 15.2975,33.02875 3.3608,13.44329 7.30113,35.11486 12.97977,47.28328 2.31783,6.02635 3.94023,10.66193 2.89727,11.24146 -1.04306,0.69534 -1.50659,-0.46362 -2.31784,-2.43374 -0.81124,-2.08602 -9.50305,-20.2808 -26.07533,-31.52216 -16.8041,-11.35727 -31.86988,-22.71454 -37.66442,-34.07181 2.78136,21.32386 11.12546,28.7408 19.46964,39.28682 9.03944,11.47318 41.25694,35.11486 46.81967,42.87952 5.67863,7.88047 7.88056,9.96659 7.88056,9.96659"
         style="fill:#003366;fill-rule:nonzero;stroke:none"
         id="path84" />
      <path
         d="m 616.36981,280.63467 c 10.43012,16.68819 11.9367,19.35365 15.1816,32.44931 l 2.43374,10.66193 c 2.89727,12.86386 6.14216,27.46602 10.54602,36.96898 0.23181,0.57953 0.69534,1.7384 1.04306,2.66556 -3.70852,-6.7217 -11.47318,-18.89021 -24.22113,-27.46602 -15.87703,-10.66193 -31.40634,-22.25101 -37.08498,-33.37647 l -3.01317,0.92706 c 2.54964,18.89021 9.27124,27.1184 16.57237,35.92611 l 3.24489,4.05614 c 4.86739,6.25807 15.99294,15.52932 26.53896,24.56875 9.15534,7.64875 17.73125,14.83398 20.2808,18.42659 l 8.11237,10.08249 2.54956,-1.85421 c -0.11591,0 -2.54956,-6.48988 -0.81125,-31.17454 1.39068,-21.32385 4.05623,-60.84257 -39.17091,-85.17952 z m 33.37646,91.90112 c 0.69534,-0.34772 1.04297,-1.04306 1.04297,-2.08603 0,-1.8543 -1.04297,-5.0992 -3.2449,-11.00964 -4.28795,-9.15534 -7.64875,-24.33694 -10.4302,-36.38955 l -2.54956,-10.77783 c -2.78136,-11.35727 -4.75148,-15.76113 -11.00955,-26.19125 25.4959,17.61534 31.52216,40.56169 31.52216,62.92851 0,4.86739 -0.23181,9.61887 -0.46353,14.25454 -0.46362,6.48988 -0.57943,11.70489 -0.57943,15.87694 0,4.63567 0.11581,7.76466 0.46353,10.3143 -1.97012,-2.43374 -3.94033,-4.86739 -3.94033,-4.86739 -2.78137,-3.82442 -11.12546,-10.89373 -20.86023,-19.00602 -10.0825,-8.45999 -21.43977,-18.07896 -26.19125,-23.9894 l -3.24489,-4.17205 c -6.02635,-7.41694 -11.24146,-14.25444 -14.25454,-26.77068 7.06932,8.92363 18.5424,17.84715 33.60818,27.92965 17.15181,11.70489 25.4959,30.71091 25.61181,30.82681 0.69534,1.85431 1.15887,3.12909 2.43374,3.47671 l 0.69534,0.34772 1.39068,-0.69534"
         style="fill:#003366;fill-rule:nonzero;stroke:none"
         id="path86" />
      <path
         d="m 625.64105,327.91796 c 0,0 -5.79454,-27.00249 -16.68827,-42.87953 -10.66193,-15.87694 -32.68113,-29.55204 -55.62738,-36.04192 8.11228,6.48988 13.09557,12.40033 15.99284,17.15181 2.89727,4.75148 20.86033,31.29044 28.97261,39.63454 8.22828,8.46 21.43976,15.76112 27.3502,22.1351"
         style="fill:#003366;fill-rule:nonzero;stroke:none"
         id="path88" />
      <path
         d="m 552.28234,250.27129 c 8.80771,6.83759 13.32739,12.86385 15.64522,16.68828 2.78136,4.63557 20.86032,31.40635 29.32032,39.98216 0,0 15.52932,12.63214 15.52932,12.63214 l 11.8208,9.38705 2.66546,-1.39068 c -0.23172,-1.15887 -6.02626,-27.46602 -16.92,-43.45887 -10.77783,-15.76112 -32.44931,-29.78385 -56.55453,-36.62145 z m 62.34907,66.75293 -15.1816,-12.40023 c -8.11237,-8.22828 -26.07543,-34.99897 -28.74089,-39.28692 -2.43364,-3.94023 -6.14216,-7.99647 -10.43011,-12.16851 20.3967,7.30112 38.24385,19.23783 47.39919,32.79703 7.88056,11.58908 13.21148,29.43614 15.2975,37.78032 -3.4767,-2.89727 -8.34409,-6.72169 -8.34409,-6.72169"
         style="fill:#003366;fill-rule:nonzero;stroke:none"
         id="path90" />
    </g>
  </g>
</svg>
