<?xml version="1.0" encoding="utf-8"?>
<!-- Uploaded to: SVG Repo, www.svgrepo.com, Generator: SVG Repo Mixer Tools -->
<svg fill="#000000" width="800px" height="800px" viewBox="0 0 32 32" version="1.1" xmlns="http://www.w3.org/2000/svg">
<title>quill</title>
<path d="M0 30.016v0.992q0 0.416 0.288 0.704t0.704 0.288 0.704-0.288 0.32-0.704v-0.992q1.728-5.184 8-11.072 0 0 0 0.032t0 0.032q0 1.248 0.864 2.144t2.112 0.864 2.144-0.864 0.864-2.144q0-0.64-0.384-1.376 0.736 0.384 1.376 0.384 1.248 0 2.144-0.864t0.864-2.144q0-0.64-0.384-1.376 0.736 0.384 1.376 0.384 1.088 0 1.888-0.704t1.024-1.728q1.088 0.416 2.112 0.416 2.464 0 4.224-1.76t1.76-4.224-1.76-4.256-4.224-1.76q-2.912 0-5.632 1.024t-4.928 2.784-4.192 4-3.52 4.704-2.816 4.992-2.208 4.736-1.504 3.968-0.928 2.784z"></path>
</svg>