<svg xmlns="http://www.w3.org/2000/svg" width="50.03" height="59.873" viewBox="0 0 13.237 15.841"><path d="m61.971 111.315 5.523 5.522a1.323 1.323 0 0 0 1.871 0l5.523-5.522a.548.548 67.5 0 0-.388-.936H62.36a.548.548 112.5 0 0-.388.936" style="fill:#b3b3b3;stroke:none;stroke-width:2.64583;stroke-opacity:1" transform="translate(-61.811 -101.383)"/><path d="m61.971 107.293 5.523-5.522a1.323 1.323 180 0 1 1.871 0l5.523 5.522a.548.548 112.5 0 1-.388.936H62.36a.548.548 67.5 0 1-.388-.936" style="fill:#333;stroke:none;stroke-width:2.64583;stroke-opacity:1" transform="translate(-61.811 -101.383)"/></svg>