<?xml version="1.0" encoding="UTF-8" standalone="no"?>
<!-- Generator: Adobe Illustrator 16.0.3, SVG Export Plug-In . SVG Version: 6.00 Build 0)  -->

<svg
   version="1.1"
   id="ICAN_Logo"
   x="0px"
   y="0px"
   width="330.10373"
   height="286.90552"
   viewBox="-181.5 455 330.10373 286.90551"
   enable-background="new -181.5 455 810 296.91"
   xml:space="preserve"
   sodipodi:docname="Logo_ICAN.svg"
   inkscape:version="1.2.2 (b0a84865, 2022-12-01)"
   xmlns:inkscape="http://www.inkscape.org/namespaces/inkscape"
   xmlns:sodipodi="http://sodipodi.sourceforge.net/DTD/sodipodi-0.dtd"
   xmlns="http://www.w3.org/2000/svg"
   xmlns:svg="http://www.w3.org/2000/svg"><defs
   id="defs139" /><sodipodi:namedview
   id="namedview137"
   pagecolor="#ffffff"
   bordercolor="#000000"
   borderopacity="0.25"
   inkscape:showpageshadow="2"
   inkscape:pageopacity="0.0"
   inkscape:pagecheckerboard="0"
   inkscape:deskcolor="#d1d1d1"
   showgrid="false"
   inkscape:zoom="0.79485365"
   inkscape:cx="393.15414"
   inkscape:cy="143.42263"
   inkscape:window-width="1309"
   inkscape:window-height="456"
   inkscape:window-x="0"
   inkscape:window-y="38"
   inkscape:window-maximized="0"
   inkscape:current-layer="ICAN_Logo" />
<path
   fill="#8e1537"
   d="m 104.497,637.384 c 23.457,50.02 31.004,93.917 22.69,98.697 -0.904,0.504 -1.923,0.765 -2.96,0.765 -12.754,0 -39.126,-31.913 -63.249,-76.432 z m -106.236,8.078 -45.246,45.088 c 13.358,9.765 28.878,16.155 45.238,18.636 z m -86.8,-23.27 c 2.547,16.81 9.21,32.729 19.396,46.34 l 46.527,-46.336 z m 118.184,87.233 c 15.45,-2.361 30.154,-8.231 42.989,-17.151 5.605,8.798 11.663,17.294 18.151,25.465 -61.03,42.499 -144.96,27.481 -187.461,-33.551 -15.808,-22.696 -24.241,-49.714 -24.154,-77.374 v -5.448 l 32.433,-10.128 H 8.621 L 76.025,524.12 c -37.045,-27.961 -88.2,-27.748 -125.009,0.524 l -6.689,-33.152 c 53.525,-32.412 122.332,-23.654 166.03,21.138 43.697,44.793 50.753,113.804 17.023,166.51 -4.344,-13.509 -9.446,-26.762 -15.288,-39.697 10.454,-31.535 5.123,-66.173 -14.332,-93.105 l -68.404,68.408 v 94.441 z m 5.873,-92.01 23.888,-23.881 c 6.105,4.447 11.958,9.229 17.529,14.328 0,0 -19.587,37.262 -25.843,46.336 -5.334,-1.562 -10.554,-3.488 -15.619,-5.777 z m -90.425,-90.566 c -26.892,-11.226 -50.828,-19.155 -61.432,-20.779 l -1.959,-51.07 55.89,34.443 7.498,37.216 z m -33.345,58.04 -37.398,11.465 -55.85,-27.805 44.521,-25.701 c 14.798,15.678 31.191,29.769 48.914,42.041 z m -45.475,-47.729 c 0,0 12.227,-21.469 14.141,-24.834 2.148,-0.14 3.326,0.005 5.334,0.409 12.501,2.514 70.126,21.576 135.492,57.056 L 6.044,584.934 h -83.448 c 0,0 -37.221,-25.435 -56.323,-47.774 z"
   id="path132" />

</svg>
